<?xml version="1.0" encoding="UTF-8" standalone="no"?>
<svg width="1200" height="630" viewBox="0 0 1200 630" xmlns="http://www.w3.org/2000/svg" style="fill-rule:evenodd;clip-rule:evenodd;">
  <defs>
    <!-- Background gradient -->
    <linearGradient id="bg" x1="0" y1="0" x2="0" y2="1">
      <stop offset="0" stop-color="rgb(3,3,8)"/>
      <stop offset="0.4" stop-color="rgb(6,6,14)"/>
      <stop offset="1" stop-color="rgb(3,3,8)"/>
    </linearGradient>
    <!-- Green glow (left) -->
    <radialGradient id="glowGreen" cx="0.35" cy="0.38" r="0.45">
      <stop offset="0" stop-color="rgb(57,255,20)" stop-opacity="0.1"/>
      <stop offset="0.4" stop-color="rgb(57,255,20)" stop-opacity="0.03"/>
      <stop offset="1" stop-color="black" stop-opacity="0"/>
    </radialGradient>
    <!-- Violet glow (right) -->
    <radialGradient id="glowViolet" cx="0.65" cy="0.42" r="0.45">
      <stop offset="0" stop-color="rgb(123,47,255)" stop-opacity="0.1"/>
      <stop offset="0.4" stop-color="rgb(123,47,255)" stop-opacity="0.03"/>
      <stop offset="1" stop-color="black" stop-opacity="0"/>
    </radialGradient>
    <!-- Center blend glow -->
    <radialGradient id="glowBlend" cx="0.5" cy="0.4" r="0.35">
      <stop offset="0" stop-color="rgb(90,151,138)" stop-opacity="0.06"/>
      <stop offset="0.5" stop-color="rgb(90,151,138)" stop-opacity="0.02"/>
      <stop offset="1" stop-color="black" stop-opacity="0"/>
    </radialGradient>
    <!-- Vertical grid line gradient (dual color) -->
    <linearGradient id="vline" x1="0" y1="0" x2="0" y2="1">
      <stop offset="0" stop-color="rgb(57,255,20)" stop-opacity="0"/>
      <stop offset="0.25" stop-color="rgb(57,255,20)" stop-opacity="0.04"/>
      <stop offset="0.5" stop-color="rgb(123,47,255)" stop-opacity="0.04"/>
      <stop offset="0.75" stop-color="rgb(123,47,255)" stop-opacity="0.04"/>
      <stop offset="1" stop-color="rgb(57,255,20)" stop-opacity="0"/>
    </linearGradient>
    <!-- Horizontal emphasis line gradient (green-to-violet) -->
    <linearGradient id="hline" x1="0" y1="0" x2="1" y2="0">
      <stop offset="0" stop-color="rgb(57,255,20)" stop-opacity="0"/>
      <stop offset="0.2" stop-color="rgb(57,255,20)" stop-opacity="0.1"/>
      <stop offset="0.5" stop-color="rgb(123,47,255)" stop-opacity="0.12"/>
      <stop offset="0.8" stop-color="rgb(123,47,255)" stop-opacity="0.1"/>
      <stop offset="1" stop-color="rgb(123,47,255)" stop-opacity="0"/>
    </linearGradient>
    <!-- Prism halo -->
    <radialGradient id="prismHalo" cx="0.5" cy="0.5" r="0.5">
      <stop offset="0" stop-color="rgb(57,255,20)" stop-opacity="0.1"/>
      <stop offset="0.5" stop-color="rgb(123,47,255)" stop-opacity="0.04"/>
      <stop offset="1" stop-color="rgb(123,47,255)" stop-opacity="0"/>
    </radialGradient>
  </defs>

  <!-- === BACKGROUND === -->
  <rect width="1200" height="630" fill="url(#bg)"/>
  <rect width="1200" height="630" fill="url(#glowGreen)"/>
  <rect width="1200" height="630" fill="url(#glowViolet)"/>
  <rect width="1200" height="630" fill="url(#glowBlend)"/>

  <!-- === GRID SYSTEM === -->
  <line x1="0" y1="63" x2="1200" y2="63" stroke="rgb(57,255,20)" stroke-opacity="0.025" stroke-width="0.3"/>
  <line x1="0" y1="126" x2="1200" y2="126" stroke="rgb(57,255,20)" stroke-opacity="0.025" stroke-width="0.3"/>
  <line x1="0" y1="189" x2="1200" y2="189" stroke="rgb(123,47,255)" stroke-opacity="0.025" stroke-width="0.3"/>
  <line x1="0" y1="252" x2="1200" y2="252" stroke="rgb(123,47,255)" stroke-opacity="0.025" stroke-width="0.3"/>
  <line x1="0" y1="315" x2="1200" y2="315" stroke="rgb(123,47,255)" stroke-opacity="0.025" stroke-width="0.3"/>
  <line x1="0" y1="378" x2="1200" y2="378" stroke="rgb(57,255,20)" stroke-opacity="0.025" stroke-width="0.3"/>
  <line x1="0" y1="441" x2="1200" y2="441" stroke="rgb(57,255,20)" stroke-opacity="0.025" stroke-width="0.3"/>
  <line x1="0" y1="504" x2="1200" y2="504" stroke="rgb(123,47,255)" stroke-opacity="0.025" stroke-width="0.3"/>
  <line x1="0" y1="567" x2="1200" y2="567" stroke="rgb(123,47,255)" stroke-opacity="0.025" stroke-width="0.3"/>

  <!-- Major vertical lines -->
  <line x1="300" y1="0" x2="300" y2="630" stroke="url(#vline)" stroke-width="0.5"/>
  <line x1="600" y1="0" x2="600" y2="630" stroke="url(#vline)" stroke-width="0.5"/>
  <line x1="900" y1="0" x2="900" y2="630" stroke="url(#vline)" stroke-width="0.5"/>

  <!-- Minor vertical lines -->
  <line x1="150" y1="0" x2="150" y2="630" stroke="rgb(57,255,20)" stroke-opacity="0.02" stroke-width="0.3"/>
  <line x1="450" y1="0" x2="450" y2="630" stroke="rgb(123,47,255)" stroke-opacity="0.02" stroke-width="0.3"/>
  <line x1="750" y1="0" x2="750" y2="630" stroke="rgb(123,47,255)" stroke-opacity="0.02" stroke-width="0.3"/>
  <line x1="1050" y1="0" x2="1050" y2="630" stroke="rgb(57,255,20)" stroke-opacity="0.02" stroke-width="0.3"/>

  <!-- Emphasis horizontal lines -->
  <line x1="0" y1="210" x2="1200" y2="210" stroke="url(#hline)" stroke-width="0.5"/>
  <line x1="0" y1="420" x2="1200" y2="420" stroke="url(#hline)" stroke-width="0.5"/>

  <!-- === DATA FLOW PATHS === -->
  <line x1="65" y1="0" x2="260" y2="315" stroke="rgb(57,255,20)" stroke-opacity="0.03" stroke-width="0.3"/>
  <line x1="1135" y1="0" x2="940" y2="315" stroke="rgb(123,47,255)" stroke-opacity="0.03" stroke-width="0.3"/>
  <line x1="160" y1="630" x2="600" y2="220" stroke="rgb(57,255,20)" stroke-opacity="0.02" stroke-width="0.3"/>
  <line x1="1040" y1="630" x2="600" y2="220" stroke="rgb(123,47,255)" stroke-opacity="0.02" stroke-width="0.3"/>

  <!-- === PARTICLE FIELD === -->
  <!-- Green particles -->
  <rect x="96" y="100" width="1.5" height="1.5" fill="rgb(57,255,20)" opacity="0.12"/>
  <rect x="196" y="176" width="1" height="1" fill="rgb(57,255,20)" opacity="0.1"/>
  <rect x="304" y="76" width="1.5" height="1.5" fill="rgb(57,255,20)" opacity="0.08"/>
  <rect x="416" y="554" width="1.5" height="1.5" fill="rgb(57,255,20)" opacity="0.08"/>
  <rect x="512" y="113" width="1" height="1" fill="rgb(57,255,20)" opacity="0.1"/>
  <!-- Violet particles -->
  <rect x="680" y="88" width="1.5" height="1.5" fill="rgb(123,47,255)" opacity="0.12"/>
  <rect x="736" y="542" width="1" height="1" fill="rgb(123,47,255)" opacity="0.1"/>
  <rect x="840" y="151" width="1.5" height="1.5" fill="rgb(123,47,255)" opacity="0.1"/>
  <rect x="920" y="441" width="1" height="1" fill="rgb(123,47,255)" opacity="0.08"/>
  <rect x="1024" y="113" width="1.5" height="1.5" fill="rgb(123,47,255)" opacity="0.1"/>
  <rect x="1080" y="353" width="1" height="1" fill="rgb(123,47,255)" opacity="0.08"/>

  <!-- === CORNER BRACKETS (green left, violet right) === -->
  <line x1="24" y1="24" x2="60" y2="24" stroke="rgb(57,255,20)" stroke-opacity="0.3" stroke-width="1"/>
  <line x1="24" y1="24" x2="24" y2="60" stroke="rgb(57,255,20)" stroke-opacity="0.3" stroke-width="1"/>
  <line x1="1176" y1="24" x2="1140" y2="24" stroke="rgb(123,47,255)" stroke-opacity="0.3" stroke-width="1"/>
  <line x1="1176" y1="24" x2="1176" y2="60" stroke="rgb(123,47,255)" stroke-opacity="0.3" stroke-width="1"/>
  <line x1="24" y1="606" x2="60" y2="606" stroke="rgb(57,255,20)" stroke-opacity="0.3" stroke-width="1"/>
  <line x1="24" y1="606" x2="24" y2="570" stroke="rgb(57,255,20)" stroke-opacity="0.3" stroke-width="1"/>
  <line x1="1176" y1="606" x2="1140" y2="606" stroke="rgb(123,47,255)" stroke-opacity="0.3" stroke-width="1"/>
  <line x1="1176" y1="606" x2="1176" y2="570" stroke="rgb(123,47,255)" stroke-opacity="0.3" stroke-width="1"/>

  <!-- === HUD READOUTS === -->
  <text x="40" y="18" font-family="Menlo, monospace" font-size="7" fill="rgb(57,255,20)">PAPER::v1.0</text>
  <text x="1160" y="18" text-anchor="end" font-family="Menlo, monospace" font-size="7" fill="rgb(123,47,255)">FEB 2026</text>

  <!-- === PRISM HALO === -->
  <circle cx="600" cy="155" r="80" fill="url(#prismHalo)"/>

  <!-- === CONVERGENCE PRISM (smaller, centered) === -->
  <g transform="translate(560, 100)">
    <!-- Main prism faces -->
    <polygon points="40,0 8,35 40,46" fill="rgb(57,255,20)" opacity="0.7"/>
    <polygon points="40,0 72,35 40,46" fill="rgb(123,47,255)" opacity="0.6"/>
    <polygon points="8,35 40,46 72,35 40,82" fill="rgb(90,151,138)" opacity="0.65"/>
    <!-- Refraction edges -->
    <line x1="40" y1="0" x2="40" y2="82" stroke="white" stroke-opacity="0.15" stroke-width="0.5"/>
    <line x1="40" y1="0" x2="8" y2="35" stroke="white" stroke-opacity="0.06" stroke-width="0.3"/>
    <line x1="40" y1="0" x2="72" y2="35" stroke="white" stroke-opacity="0.06" stroke-width="0.3"/>
  </g>

  <!-- === MAIN HEADING === -->
  <text x="600" y="275" text-anchor="middle" font-family="Helvetica, Arial, sans-serif" font-weight="800" font-size="60" fill="white">Mythic Whitepaper</text>

  <!-- === SUBTITLE === -->
  <text x="600" y="330" text-anchor="middle" font-family="Menlo, monospace" font-size="17" letter-spacing="1" fill="white" opacity="0.5">AI-Native Consensus  ·  Firedancer  ·  1M+ TPS</text>

  <!-- === KEY METRICS === -->
  <g transform="translate(210, 380)">
    <rect x="0" y="0" width="175" height="60" fill="white" opacity="0.02" stroke="rgb(57,255,20)" stroke-opacity="0.12" stroke-width="0.5"/>
    <text x="88" y="25" text-anchor="middle" font-family="Menlo, monospace" font-size="8" letter-spacing="2" fill="rgb(57,255,20)" opacity="0.5">THROUGHPUT</text>
    <text x="88" y="47" text-anchor="middle" font-family="Helvetica, Arial, sans-serif" font-weight="700" font-size="18" fill="white">1M+ TPS</text>

    <rect x="195" y="0" width="175" height="60" fill="white" opacity="0.02" stroke="rgb(123,47,255)" stroke-opacity="0.12" stroke-width="0.5"/>
    <text x="283" y="25" text-anchor="middle" font-family="Menlo, monospace" font-size="8" letter-spacing="2" fill="rgb(123,47,255)" opacity="0.5">BLOCK TIME</text>
    <text x="283" y="47" text-anchor="middle" font-family="Helvetica, Arial, sans-serif" font-weight="700" font-size="18" fill="white">400ms</text>

    <rect x="390" y="0" width="175" height="60" fill="white" opacity="0.02" stroke="rgb(57,255,20)" stroke-opacity="0.12" stroke-width="0.5"/>
    <text x="478" y="25" text-anchor="middle" font-family="Menlo, monospace" font-size="8" letter-spacing="2" fill="rgb(57,255,20)" opacity="0.5">SUPPLY</text>
    <text x="478" y="47" text-anchor="middle" font-family="Helvetica, Arial, sans-serif" font-weight="700" font-size="18" fill="white">1B Fixed</text>
  </g>

  <!-- === SECTION LABELS (decorative) === -->
  <g transform="translate(340, 490)">
    <text x="0" y="0" font-family="Menlo, monospace" font-size="9" letter-spacing="1.5" fill="rgb(57,255,20)" opacity="0.2">CONSENSUS  ·  TOKENOMICS  ·  BRIDGE  ·  AI PRECOMPILES  ·  SECURITY</text>
  </g>

  <!-- === BOTTOM INFO STRIP === -->
  <rect x="0" y="590" width="600" height="40" fill="rgb(57,255,20)" opacity="0.04"/>
  <rect x="600" y="590" width="600" height="40" fill="rgb(123,47,255)" opacity="0.04"/>
  <text x="50" y="614" font-family="Menlo, monospace" font-size="12" fill="rgb(57,255,20)">MYTHIC</text>
  <text x="600" y="614" text-anchor="middle" font-family="Menlo, monospace" font-size="12" letter-spacing="1" fill="white" opacity="0.5">mythic.sh/whitepaper</text>
  <text x="1150" y="614" text-anchor="end" font-family="Menlo, monospace" font-size="12" fill="rgb(123,47,255)">$MYTH</text>

  <!-- === BORDER === -->
  <rect x="0.5" y="0.5" width="1199" height="629" fill="none" stroke="rgb(57,255,20)" stroke-opacity="0.1" stroke-width="0.5"/>
  <rect x="0.5" y="0.5" width="1199" height="629" fill="none" stroke="rgb(123,47,255)" stroke-opacity="0.08" stroke-width="0.5"/>
</svg>
