<svg xmlns="http://www.w3.org/2000/svg" viewBox="0 0 32 32" width="32" height="32" fill="none">
  <path d="M4 14C4 7.373 9.373 2 16 2s12 5.373 12 12v10.5c0 .828-.672 1.5-1.5 1.5-.828 0-1.5-.672-1.5-1.5V23c0-1.105-.895-2-2-2s-2 .895-2 2v2c0 .552-.448 1-1 1s-1-.448-1-1v-2c0-1.105-.895-2-2-2s-2 .895-2 2v3c0 .552-.448 1-1 1s-1-.448-1-1v-2c0-1.105-.895-2-2-2s-2 .895-2 2v1.5c0 .828-.672 1.5-1.5 1.5S4 25.328 4 24.5V14z" fill="#AB9FF2"/>
  <ellipse cx="12" cy="14" rx="1.75" ry="2.25" fill="white"/>
  <ellipse cx="20" cy="14" rx="1.75" ry="2.25" fill="white"/>
</svg>