<svg xmlns="http://www.w3.org/2000/svg" width="200" height="200" viewBox="0 0 200 200">
  <circle cx="100" cy="100" r="100" fill="#2775CA"/>
  <path d="M128.5 115.6c0-13.2-8-17.7-24-19.6-11.4-1.6-13.6-4.7-13.6-10.2s4.4-8.8 13-8.8c7.8 0 12 2.4 14.2 8.4a3.1 3.1 0 0 0 3 2h6.7a2.8 2.8 0 0 0 2.8-3.1c-1.7-9.4-8.6-16.4-17.8-18V57.8a2.8 2.8 0 0 0-2.8-2.8h-6.7a2.8 2.8 0 0 0-2.8 2.8v8.6c-11.9 1.7-19.4 9.4-19.4 19 0 12.5 7.8 17.3 23.7 19.2 10.8 1.9 14 5 14 10.6s-5.9 9.8-13.3 9.8c-10.4 0-14.2-4.4-15.4-10.1a3 3 0 0 0-3-2.2h-7.2a2.8 2.8 0 0 0-2.8 3.1c1.9 10.5 9.1 17 20.8 18.9v8.7a2.8 2.8 0 0 0 2.8 2.8h6.7a2.8 2.8 0 0 0 2.8-2.8v-8.6c12-2 19.7-10 19.7-19.8z" fill="#fff"/>
</svg>
