<svg xmlns="http://www.w3.org/2000/svg" viewBox="0 0 32 32" width="32" height="32" fill="none">
  <path fill-rule="evenodd" clip-rule="evenodd" d="M16 2C8.268 2 2 8.268 2 16s6.268 14 14 14 14-6.268 14-14S23.732 2 16 2zM4.2 16c0-1.1.15-2.16.43-3.17h5.54c-.11 1.03-.17 2.09-.17 3.17s.06 2.14.17 3.17H4.63A11.83 11.83 0 014.2 16zm8-3.17h7.6c.12 1.02.2 2.08.2 3.17s-.08 2.15-.2 3.17h-7.6c-.12-1.02-.2-2.08-.2-3.17s.08-2.15.2-3.17zM16 4.2c1.68 0 3.37 2.56 4.14 6.63H11.86C12.63 6.76 14.32 4.2 16 4.2zm5.83 6.63h5.54c.28 1.01.43 2.07.43 3.17s-.15 2.16-.43 3.17h-5.54c.11-1.03.17-2.09.17-3.17s-.06-2.14-.17-3.17zM25.8 10.83h-5.05c-.5-2.54-1.35-4.6-2.46-5.76a11.84 11.84 0 017.51 5.76zM13.71 5.07c-1.11 1.16-1.96 3.22-2.46 5.76H6.2a11.84 11.84 0 017.51-5.76zM6.2 21.17h5.05c.5 2.54 1.35 4.6 2.46 5.76a11.84 11.84 0 01-7.51-5.76zm5.66 0h8.28c-.77 4.07-2.46 6.63-4.14 6.63s-3.37-2.56-4.14-6.63zm6.43 5.76c1.11-1.16 1.96-3.22 2.46-5.76h5.05a11.84 11.84 0 01-7.51 5.76z" fill="#7B2FFF"/>
</svg>