<svg xmlns="http://www.w3.org/2000/svg" width="1500" height="500" viewBox="0 0 1500 500" fill="none">
  <defs>
    <style>
      @import url('https://fonts.googleapis.com/css2?family=Sora:wght@400;600;700;800&amp;family=JetBrains+Mono:wght@400;500;600;700&amp;display=swap');
    </style>

    <!-- Deep dark radial bg with green core -->
    <radialGradient id="bg-core" cx="0.5" cy="0.42" r="0.55">
      <stop offset="0" stop-color="#071A05"/>
      <stop offset="0.3" stop-color="#040E03"/>
      <stop offset="0.6" stop-color="#020602"/>
      <stop offset="1" stop-color="#000000"/>
    </radialGradient>

    <!-- Intense green atmosphere -->
    <radialGradient id="glow-main" cx="0.5" cy="0.35" r="0.45">
      <stop offset="0" stop-color="#39FF14" stop-opacity="0.12"/>
      <stop offset="0.25" stop-color="#39FF14" stop-opacity="0.06"/>
      <stop offset="0.5" stop-color="#39FF14" stop-opacity="0.02"/>
      <stop offset="1" stop-color="#000" stop-opacity="0"/>
    </radialGradient>

    <!-- Purple accent glow (left) -->
    <radialGradient id="glow-violet" cx="0.12" cy="0.55" r="0.3">
      <stop offset="0" stop-color="#7B2FFF" stop-opacity="0.06"/>
      <stop offset="1" stop-color="#000" stop-opacity="0"/>
    </radialGradient>

    <!-- Cyan accent glow (right) -->
    <radialGradient id="glow-cyan" cx="0.88" cy="0.55" r="0.3">
      <stop offset="0" stop-color="#00E5FF" stop-opacity="0.04"/>
      <stop offset="1" stop-color="#000" stop-opacity="0"/>
    </radialGradient>

    <!-- Prism inner halo -->
    <radialGradient id="prism-halo" cx="0.5" cy="0.38" r="0.25">
      <stop offset="0" stop-color="#39FF14" stop-opacity="0.20"/>
      <stop offset="0.3" stop-color="#39FF14" stop-opacity="0.08"/>
      <stop offset="0.6" stop-color="#39FF14" stop-opacity="0.02"/>
      <stop offset="1" stop-color="#000" stop-opacity="0"/>
    </radialGradient>

    <!-- Wide soft halo -->
    <radialGradient id="prism-halo-wide" cx="0.5" cy="0.38" r="0.4">
      <stop offset="0" stop-color="#39FF14" stop-opacity="0.06"/>
      <stop offset="0.5" stop-color="#39FF14" stop-opacity="0.02"/>
      <stop offset="1" stop-color="#000" stop-opacity="0"/>
    </radialGradient>

    <!-- Accent bar gradient -->
    <linearGradient id="accent-bar" x1="0" y1="0" x2="1500" y2="0" gradientUnits="userSpaceOnUse">
      <stop offset="0" stop-color="#39FF14" stop-opacity="0"/>
      <stop offset="0.1" stop-color="#39FF14" stop-opacity="1"/>
      <stop offset="0.25" stop-color="#6FFF4F" stop-opacity="0.8"/>
      <stop offset="0.4" stop-color="#FF9500" stop-opacity="0.6"/>
      <stop offset="0.5" stop-color="#00E5FF" stop-opacity="0.5"/>
      <stop offset="0.6" stop-color="#7B2FFF" stop-opacity="0.6"/>
      <stop offset="0.75" stop-color="#FF2D78" stop-opacity="0.7"/>
      <stop offset="0.9" stop-color="#39FF14" stop-opacity="1"/>
      <stop offset="1" stop-color="#39FF14" stop-opacity="0"/>
    </linearGradient>

    <!-- Prism glow filter -->
    <filter id="glow" x="-80%" y="-80%" width="260%" height="260%">
      <feGaussianBlur in="SourceGraphic" stdDeviation="6" result="b1"/>
      <feGaussianBlur in="SourceGraphic" stdDeviation="16" result="b2"/>
      <feGaussianBlur in="SourceGraphic" stdDeviation="35" result="b3"/>
      <feMerge>
        <feMergeNode in="b3"/>
        <feMergeNode in="b2"/>
        <feMergeNode in="b1"/>
        <feMergeNode in="SourceGraphic"/>
      </feMerge>
    </filter>

    <!-- Text glow -->
    <filter id="txt-glow" x="-20%" y="-30%" width="140%" height="160%">
      <feGaussianBlur in="SourceGraphic" stdDeviation="3" result="b"/>
      <feMerge><feMergeNode in="b"/><feMergeNode in="SourceGraphic"/></feMerge>
    </filter>

    <!-- Stronger text glow for $MYTH -->
    <filter id="myth-glow" x="-30%" y="-40%" width="160%" height="180%">
      <feGaussianBlur in="SourceGraphic" stdDeviation="4" result="b1"/>
      <feGaussianBlur in="SourceGraphic" stdDeviation="10" result="b2"/>
      <feMerge><feMergeNode in="b2"/><feMergeNode in="b1"/><feMergeNode in="SourceGraphic"/></feMerge>
    </filter>

    <!-- Stat glow -->
    <filter id="stat-glow" x="-15%" y="-20%" width="130%" height="140%">
      <feGaussianBlur in="SourceGraphic" stdDeviation="1.5" result="b"/>
      <feMerge><feMergeNode in="b"/><feMergeNode in="SourceGraphic"/></feMerge>
    </filter>

    <!-- Grid fade -->
    <linearGradient id="vgrid" x1="0" y1="0" x2="0" y2="500" gradientUnits="userSpaceOnUse">
      <stop offset="0" stop-color="#39FF14" stop-opacity="0"/>
      <stop offset="0.3" stop-color="#39FF14" stop-opacity="0.035"/>
      <stop offset="0.5" stop-color="#39FF14" stop-opacity="0.025"/>
      <stop offset="0.7" stop-color="#39FF14" stop-opacity="0.035"/>
      <stop offset="1" stop-color="#39FF14" stop-opacity="0"/>
    </linearGradient>

    <!-- Horizontal scanline -->
    <linearGradient id="scanline" x1="0" y1="0" x2="1500" y2="0" gradientUnits="userSpaceOnUse">
      <stop offset="0" stop-color="#39FF14" stop-opacity="0"/>
      <stop offset="0.2" stop-color="#39FF14" stop-opacity="0.08"/>
      <stop offset="0.5" stop-color="#39FF14" stop-opacity="0.12"/>
      <stop offset="0.8" stop-color="#39FF14" stop-opacity="0.08"/>
      <stop offset="1" stop-color="#39FF14" stop-opacity="0"/>
    </linearGradient>

    <!-- Badge bg -->
    <linearGradient id="badge-green" x1="0" y1="0" x2="1" y2="0">
      <stop offset="0" stop-color="#39FF14" stop-opacity="0.12"/>
      <stop offset="1" stop-color="#39FF14" stop-opacity="0.06"/>
    </linearGradient>
  </defs>

  <!-- ===== BACKGROUND LAYERS ===== -->
  <rect width="1500" height="500" fill="url(#bg-core)"/>
  <rect width="1500" height="500" fill="url(#glow-main)"/>
  <rect width="1500" height="500" fill="url(#glow-violet)"/>
  <rect width="1500" height="500" fill="url(#glow-cyan)"/>

  <!-- ===== GRID SYSTEM ===== -->
  <!-- Horizontal scans -->
  <g opacity="0.02" stroke="#39FF14" stroke-width="0.3">
    <line x1="0" y1="50" x2="1500" y2="50"/>
    <line x1="0" y1="100" x2="1500" y2="100"/>
    <line x1="0" y1="150" x2="1500" y2="150"/>
    <line x1="0" y1="200" x2="1500" y2="200"/>
    <line x1="0" y1="300" x2="1500" y2="300"/>
    <line x1="0" y1="350" x2="1500" y2="350"/>
    <line x1="0" y1="400" x2="1500" y2="400"/>
    <line x1="0" y1="450" x2="1500" y2="450"/>
  </g>
  <!-- Center emphasis -->
  <line x1="0" y1="250" x2="1500" y2="250" stroke="url(#scanline)" stroke-width="0.5"/>

  <!-- Vertical grid -->
  <line x1="375" y1="0" x2="375" y2="500" stroke="url(#vgrid)" stroke-width="0.4"/>
  <line x1="750" y1="0" x2="750" y2="500" stroke="url(#vgrid)" stroke-width="0.5"/>
  <line x1="1125" y1="0" x2="1125" y2="500" stroke="url(#vgrid)" stroke-width="0.4"/>
  <g opacity="0.015" stroke="#39FF14" stroke-width="0.3">
    <line x1="187" y1="0" x2="187" y2="500"/>
    <line x1="562" y1="0" x2="562" y2="500"/>
    <line x1="937" y1="0" x2="937" y2="500"/>
    <line x1="1312" y1="0" x2="1312" y2="500"/>
  </g>

  <!-- Data convergence lines → prism -->
  <line x1="0" y1="0" x2="750" y2="155" stroke="#39FF14" stroke-width="0.3" opacity="0.025"/>
  <line x1="1500" y1="0" x2="750" y2="155" stroke="#39FF14" stroke-width="0.3" opacity="0.025"/>
  <line x1="0" y1="500" x2="750" y2="155" stroke="#39FF14" stroke-width="0.2" opacity="0.015"/>
  <line x1="1500" y1="500" x2="750" y2="155" stroke="#39FF14" stroke-width="0.2" opacity="0.015"/>
  <line x1="300" y1="0" x2="750" y2="155" stroke="#39FF14" stroke-width="0.2" opacity="0.02"/>
  <line x1="1200" y1="0" x2="750" y2="155" stroke="#39FF14" stroke-width="0.2" opacity="0.02"/>

  <!-- ===== PARTICLE FIELD ===== -->
  <rect x="85" y="55" width="2" height="2" fill="#39FF14" opacity="0.18"/>
  <rect x="230" y="125" width="1.5" height="1.5" fill="#39FF14" opacity="0.12"/>
  <rect x="340" y="50" width="1.5" height="1.5" fill="#6FFF4F" opacity="0.10"/>
  <rect x="410" y="290" width="1" height="1" fill="#7B2FFF" opacity="0.10"/>
  <rect x="520" y="420" width="1.5" height="1.5" fill="#39FF14" opacity="0.09"/>
  <rect x="630" y="80" width="1" height="1" fill="#39FF14" opacity="0.12"/>
  <rect x="880" y="60" width="1.5" height="1.5" fill="#39FF14" opacity="0.10"/>
  <rect x="960" y="410" width="1" height="1" fill="#39FF14" opacity="0.12"/>
  <rect x="1060" y="100" width="1.5" height="1.5" fill="#39FF14" opacity="0.10"/>
  <rect x="1180" y="330" width="1" height="1" fill="#00E5FF" opacity="0.10"/>
  <rect x="1310" y="75" width="1.5" height="1.5" fill="#39FF14" opacity="0.12"/>
  <rect x="1390" y="260" width="1" height="1" fill="#FF9500" opacity="0.09"/>
  <rect x="145" y="365" width="1" height="1" fill="#7B2FFF" opacity="0.11"/>
  <rect x="280" y="415" width="1" height="1" fill="#FF2D78" opacity="0.07"/>
  <rect x="1220" y="145" width="1" height="1" fill="#00E5FF" opacity="0.09"/>
  <rect x="1410" y="395" width="1" height="1" fill="#39FF14" opacity="0.08"/>

  <!-- ===== CORNER BRACKETS ===== -->
  <g stroke="#39FF14" stroke-width="1.2" fill="none" opacity="0.35">
    <line x1="20" y1="20" x2="65" y2="20"/><line x1="20" y1="20" x2="20" y2="65"/>
    <line x1="1480" y1="20" x2="1435" y2="20"/><line x1="1480" y1="20" x2="1480" y2="65"/>
    <line x1="20" y1="480" x2="65" y2="480"/><line x1="20" y1="480" x2="20" y2="435"/>
    <line x1="1480" y1="480" x2="1435" y2="480"/><line x1="1480" y1="480" x2="1480" y2="435"/>
  </g>

  <!-- ===== HUD CORNER TEXT ===== -->
  <text x="38" y="16" font-family="'JetBrains Mono', monospace" font-size="7" letter-spacing="2.5" fill="#39FF14" opacity="0.22">SYS::ACTIVE</text>
  <text x="1462" y="16" text-anchor="end" font-family="'JetBrains Mono', monospace" font-size="7" letter-spacing="2.5" fill="#39FF14" opacity="0.22">MAINNET::LIVE</text>
  <text x="38" y="494" font-family="'JetBrains Mono', monospace" font-size="7" letter-spacing="2.5" fill="#39FF14" opacity="0.15">SOLANA SVM L2</text>
  <text x="1462" y="494" text-anchor="end" font-family="'JetBrains Mono', monospace" font-size="7" letter-spacing="2.5" fill="#39FF14" opacity="0.15">mythic.sh</text>

  <!-- ===== PRISM HALOS ===== -->
  <circle cx="750" cy="155" r="180" fill="url(#prism-halo-wide)"/>
  <circle cx="750" cy="155" r="110" fill="url(#prism-halo)"/>

  <!-- ===== CONVERGENCE PRISM (Hero — massive, glowing green) ===== -->
  <g filter="url(#glow)">
    <g transform="translate(750, 155)">
      <!-- Left face — primary green -->
      <polygon points="0,-120 -75,-10 0,18" fill="#39FF14" opacity="0.94"/>
      <!-- Right face — lighter green for depth -->
      <polygon points="0,-120 75,-10 0,18" fill="#6FFF4F" opacity="0.78"/>
      <!-- Bottom face — darker green grounding -->
      <polygon points="-75,-10 0,18 75,-10 0,115" fill="#2ACC10" opacity="0.90"/>
      <!-- Edge highlights -->
      <line x1="0" y1="-120" x2="0" y2="115" stroke="white" stroke-opacity="0.22" stroke-width="0.9"/>
      <line x1="0" y1="-120" x2="-75" y2="-10" stroke="white" stroke-opacity="0.10" stroke-width="0.5"/>
      <line x1="0" y1="-120" x2="75" y2="-10" stroke="white" stroke-opacity="0.07" stroke-width="0.4"/>
      <line x1="0" y1="18" x2="-75" y2="-10" stroke="white" stroke-opacity="0.06" stroke-width="0.3"/>
      <line x1="0" y1="18" x2="75" y2="-10" stroke="white" stroke-opacity="0.04" stroke-width="0.3"/>
      <!-- Apex highlight -->
      <circle cx="0" cy="-117" r="4" fill="white" opacity="0.35"/>
      <circle cx="0" cy="-117" r="9" fill="white" opacity="0.08"/>
    </g>
  </g>

  <!-- ===== ACCENT BAR (ecosystem rainbow) ===== -->
  <rect y="310" width="1500" height="3.5" fill="url(#accent-bar)"/>
  <rect y="314" width="1500" height="0.5" fill="#39FF14" opacity="0.03"/>

  <!-- ===== $MYTH — CENTER HERO TEXT ===== -->
  <g filter="url(#myth-glow)">
    <text x="750" y="370" text-anchor="middle" font-family="'Sora', 'Helvetica Neue', sans-serif" font-weight="800" font-size="72" fill="#39FF14" letter-spacing="8">$MYTH</text>
  </g>

  <!-- Tagline -->
  <text x="750" y="400" text-anchor="middle" font-family="'JetBrains Mono', monospace" font-weight="600" font-size="13" fill="white" letter-spacing="8" opacity="0.55">THE  CHAIN  THAT  THINKS</text>

  <!-- ===== LEFT COLUMN — KEY METRICS ===== -->
  <g>
    <!-- Column header -->
    <text x="80" y="70" font-family="'JetBrains Mono', monospace" font-size="8" font-weight="700" fill="#39FF14" letter-spacing="4" opacity="0.6">PROTOCOL METRICS</text>
    <rect x="80" y="78" width="180" height="0.5" fill="#39FF14" opacity="0.2"/>

    <!-- Stat 1: Burn -->
    <g filter="url(#stat-glow)">
      <text x="80" y="118" font-family="'Sora', sans-serif" font-weight="800" font-size="38" fill="#39FF14">40%</text>
    </g>
    <text x="80" y="136" font-family="'JetBrains Mono', monospace" font-size="9" fill="#686878" letter-spacing="3">FEE BURN</text>
    <text x="80" y="152" font-family="'JetBrains Mono', monospace" font-size="8" fill="#39FF14" letter-spacing="1" opacity="0.4">DEFLATIONARY BY DESIGN</text>

    <!-- Stat 2: TPS -->
    <g filter="url(#stat-glow)">
      <text x="80" y="200" font-family="'Sora', sans-serif" font-weight="800" font-size="38" fill="#39FF14">1M+</text>
    </g>
    <text x="80" y="218" font-family="'JetBrains Mono', monospace" font-size="9" fill="#686878" letter-spacing="3">TPS</text>
    <text x="80" y="234" font-family="'JetBrains Mono', monospace" font-size="8" fill="#39FF14" letter-spacing="1" opacity="0.4">FIREDANCER VALIDATOR</text>

    <!-- Stat 3: Programs -->
    <g filter="url(#stat-glow)">
      <text x="80" y="282" font-family="'Sora', sans-serif" font-weight="800" font-size="38" fill="#FFFFFF" opacity="0.9">11</text>
    </g>
    <text x="80" y="300" font-family="'JetBrains Mono', monospace" font-size="9" fill="#686878" letter-spacing="3">PROGRAMS</text>
    <text x="80" y="316" font-family="'JetBrains Mono', monospace" font-size="8" fill="#7B2FFF" letter-spacing="1" opacity="0.5">DEPLOYED AT GENESIS</text>
  </g>

  <!-- ===== RIGHT COLUMN — TRUST SIGNALS ===== -->
  <g>
    <!-- Column header -->
    <text x="1420" y="70" text-anchor="end" font-family="'JetBrains Mono', monospace" font-size="8" font-weight="700" fill="#39FF14" letter-spacing="4" opacity="0.6">INFRASTRUCTURE</text>
    <rect x="1240" y="78" width="180" height="0.5" fill="#39FF14" opacity="0.2"/>

    <!-- Badge: LIVE MAINNET -->
    <rect x="1295" y="92" rx="0" ry="0" width="125" height="26" fill="#39FF14" fill-opacity="0.08" stroke="#39FF14" stroke-opacity="0.3" stroke-width="0.8"/>
    <circle cx="1310" cy="105" r="3" fill="#39FF14" opacity="0.9"/>
    <text x="1322" y="109" font-family="'JetBrains Mono', monospace" font-size="10" font-weight="700" fill="#39FF14" letter-spacing="2">MAINNET</text>

    <!-- Badge: SOLANA SVM -->
    <rect x="1295" y="128" rx="0" ry="0" width="125" height="24" fill="#7B2FFF" fill-opacity="0.06" stroke="#7B2FFF" stroke-opacity="0.2" stroke-width="0.8"/>
    <text x="1357" y="144" text-anchor="middle" font-family="'JetBrains Mono', monospace" font-size="9" font-weight="600" fill="#9B5FFF" letter-spacing="2">SOLANA SVM</text>

    <!-- Badge: AI VALIDATORS -->
    <rect x="1295" y="162" rx="0" ry="0" width="125" height="24" fill="#00E5FF" fill-opacity="0.04" stroke="#00E5FF" stroke-opacity="0.15" stroke-width="0.8"/>
    <text x="1357" y="178" text-anchor="middle" font-family="'JetBrains Mono', monospace" font-size="9" font-weight="600" fill="#00E5FF" letter-spacing="2" opacity="0.8">AI VALIDATORS</text>

    <!-- Trust line -->
    <text x="1420" y="215" text-anchor="end" font-family="'JetBrains Mono', monospace" font-size="8" fill="#686878" letter-spacing="2">NO PRESALE · NO VC</text>
    <text x="1420" y="232" text-anchor="end" font-family="'JetBrains Mono', monospace" font-size="8" fill="#686878" letter-spacing="2">FAIR LAUNCH · PUMPFUN</text>

    <!-- Ecosystem domains -->
    <text x="1420" y="268" text-anchor="end" font-family="'JetBrains Mono', monospace" font-size="8" font-weight="700" fill="#39FF14" letter-spacing="4" opacity="0.6">ECOSYSTEM</text>
    <rect x="1310" y="276" width="110" height="0.5" fill="#39FF14" opacity="0.2"/>

    <text x="1420" y="296" text-anchor="end" font-family="'JetBrains Mono', monospace" font-size="9" fill="#E0E0E8" letter-spacing="1" opacity="0.65">mythic.sh</text>
    <text x="1420" y="312" text-anchor="end" font-family="'JetBrains Mono', monospace" font-size="9" fill="#FF9500" letter-spacing="1" opacity="0.65">mythicswap.app</text>
    <text x="1420" y="328" text-anchor="end" font-family="'JetBrains Mono', monospace" font-size="9" fill="#00E5FF" letter-spacing="1" opacity="0.65">mythic.money</text>
    <text x="1420" y="344" text-anchor="end" font-family="'JetBrains Mono', monospace" font-size="9" fill="#FF2D78" letter-spacing="1" opacity="0.65">wallet.mythic.sh</text>
  </g>

  <!-- ===== BOTTOM STATS BAR ===== -->
  <!-- Left: CA (contract address) -->
  <text x="80" y="435" font-family="'JetBrains Mono', monospace" font-size="7" fill="#39FF14" letter-spacing="2" opacity="0.35">CA:</text>
  <text x="105" y="435" font-family="'JetBrains Mono', monospace" font-size="8" fill="#A0A0B0" letter-spacing="1" opacity="0.5">5UP2iL9DefXC3yovX9b4XG2EiCnyxuVo3S2F6ik5pump</text>

  <!-- Sub-brand gems row -->
  <!-- Network (green) -->
  <g transform="translate(640, 428)">
    <polygon points="7,0 0,5.5 7,7.5" fill="#39FF14" opacity="0.95"/>
    <polygon points="7,0 14,5.5 7,7.5" fill="#6FFF4F" opacity="0.80"/>
    <polygon points="0,5.5 7,7.5 14,5.5 7,16" fill="#2ACC10" opacity="0.90"/>
  </g>
  <!-- Swap (amber) -->
  <g transform="translate(675, 430)">
    <polygon points="5,0 0,4 5,5.5" fill="#FF9500" opacity="0.92"/>
    <polygon points="5,0 10,4 5,5.5" fill="#FFB340" opacity="0.78"/>
    <polygon points="0,4 5,5.5 10,4 5,12" fill="#CC7700" opacity="0.88"/>
  </g>
  <!-- Money (cyan) -->
  <g transform="translate(705, 430)">
    <polygon points="5,0 0,4 5,5.5" fill="#00E5FF" opacity="0.92"/>
    <polygon points="5,0 10,4 5,5.5" fill="#40EDFF" opacity="0.78"/>
    <polygon points="0,4 5,5.5 10,4 5,12" fill="#00B8CC" opacity="0.88"/>
  </g>
  <!-- Foundation (purple) -->
  <g transform="translate(735, 430)">
    <polygon points="5,0 0,4 5,5.5" fill="#7B2FFF" opacity="0.92"/>
    <polygon points="5,0 10,4 5,5.5" fill="#9B5FFF" opacity="0.78"/>
    <polygon points="0,4 5,5.5 10,4 5,12" fill="#5A1FCC" opacity="0.88"/>
  </g>
  <!-- Wallet (rose) -->
  <g transform="translate(765, 430)">
    <polygon points="5,0 0,4 5,5.5" fill="#FF2D78" opacity="0.92"/>
    <polygon points="5,0 10,4 5,5.5" fill="#FF5C96" opacity="0.78"/>
    <polygon points="0,4 5,5.5 10,4 5,12" fill="#CC2460" opacity="0.88"/>
  </g>
  <!-- Labs (white) -->
  <g transform="translate(795, 430)">
    <polygon points="5,0 0,4 5,5.5" fill="#FFFFFF" opacity="0.80"/>
    <polygon points="5,0 10,4 5,5.5" fill="#CCCCCC" opacity="0.60"/>
    <polygon points="0,4 5,5.5 10,4 5,12" fill="#999999" opacity="0.50"/>
  </g>
  <!-- Forge (outline) -->
  <g transform="translate(825, 430)">
    <polygon points="5,0 0,4 5,5.5" fill="none" stroke="#39FF14" stroke-width="0.7" opacity="0.80"/>
    <polygon points="5,0 10,4 5,5.5" fill="none" stroke="#39FF14" stroke-width="0.7" opacity="0.60"/>
    <polygon points="0,4 5,5.5 10,4 5,12" fill="none" stroke="#39FF14" stroke-width="0.7" opacity="0.50"/>
  </g>

  <!-- Sub-brand labels -->
  <text x="647" y="458" text-anchor="middle" font-family="'JetBrains Mono', monospace" font-size="6" fill="#39FF14" opacity="0.35">L2</text>
  <text x="680" y="458" text-anchor="middle" font-family="'JetBrains Mono', monospace" font-size="6" fill="#404050">DEX</text>
  <text x="710" y="458" text-anchor="middle" font-family="'JetBrains Mono', monospace" font-size="6" fill="#404050">PAD</text>
  <text x="740" y="458" text-anchor="middle" font-family="'JetBrains Mono', monospace" font-size="6" fill="#404050">DAO</text>
  <text x="770" y="458" text-anchor="middle" font-family="'JetBrains Mono', monospace" font-size="6" fill="#404050">WALLET</text>
  <text x="800" y="458" text-anchor="middle" font-family="'JetBrains Mono', monospace" font-size="6" fill="#404050">LABS</text>
  <text x="830" y="458" text-anchor="middle" font-family="'JetBrains Mono', monospace" font-size="6" fill="#404050">FORGE</text>

  <!-- Right bottom: website -->
  <text x="1420" y="435" text-anchor="end" font-family="'Sora', sans-serif" font-weight="700" font-size="14" fill="#39FF14" letter-spacing="3" opacity="0.5">mythic.sh</text>
  <text x="1420" y="455" text-anchor="end" font-family="'JetBrains Mono', monospace" font-size="8" fill="#686878" letter-spacing="2">BRIDGE · SWAP · EARN</text>

  <!-- Bottom tagline bar -->
  <text x="750" y="486" text-anchor="middle" font-family="'JetBrains Mono', monospace" font-size="9" letter-spacing="5" fill="#39FF14" opacity="0.18">AI-NATIVE DECENTRALIZED COMPUTING  ·  SOLANA SVM L2  ·  LIVE ON MAINNET</text>

  <!-- ===== BORDER ===== -->
  <rect x="0.5" y="0.5" width="1499" height="499" fill="none" stroke="#39FF14" stroke-width="0.6" opacity="0.15"/>
</svg>