<svg xmlns="http://www.w3.org/2000/svg" width="1280" height="720" viewBox="0 0 1280 720" style="fill-rule:evenodd;clip-rule:evenodd;">
  <defs>
    <linearGradient id="bg" x1="0" y1="0" x2="0" y2="1">
      <stop offset="0" stop-color="#080408"/>
      <stop offset="0.4" stop-color="#0A050C"/>
      <stop offset="1" stop-color="#040208"/>
    </linearGradient>
    <radialGradient id="g1" cx="0.5" cy="0.28" r="0.5">
      <stop offset="0" stop-color="#FF2D78" stop-opacity="0.14"/>
      <stop offset="0.25" stop-color="#FF2D78" stop-opacity="0.06"/>
      <stop offset="0.5" stop-color="#FF2D78" stop-opacity="0.02"/>
      <stop offset="1" stop-color="#000" stop-opacity="0"/>
    </radialGradient>
    <radialGradient id="g2" cx="0.12" cy="0.75" r="0.3">
      <stop offset="0" stop-color="#7B2FFF" stop-opacity="0.05"/>
      <stop offset="1" stop-color="#000" stop-opacity="0"/>
    </radialGradient>
    <radialGradient id="g3" cx="0.9" cy="0.6" r="0.25">
      <stop offset="0" stop-color="#39FF14" stop-opacity="0.03"/>
      <stop offset="1" stop-color="#000" stop-opacity="0"/>
    </radialGradient>
    <radialGradient id="halo" cx="0.5" cy="0.5" r="0.5">
      <stop offset="0" stop-color="#FF2D78" stop-opacity="0.3"/>
      <stop offset="0.2" stop-color="#FF2D78" stop-opacity="0.12"/>
      <stop offset="0.4" stop-color="#FF2D78" stop-opacity="0.04"/>
      <stop offset="1" stop-color="#000" stop-opacity="0"/>
    </radialGradient>
    <filter id="glow" x="-60%" y="-60%" width="220%" height="220%">
      <feGaussianBlur in="SourceGraphic" stdDeviation="4" result="b1"/>
      <feGaussianBlur in="SourceGraphic" stdDeviation="12" result="b2"/>
      <feGaussianBlur in="SourceGraphic" stdDeviation="24" result="b3"/>
      <feMerge><feMergeNode in="b3"/><feMergeNode in="b2"/><feMergeNode in="b1"/><feMergeNode in="SourceGraphic"/></feMerge>
    </filter>
    <filter id="txt-glow" x="-20%" y="-20%" width="140%" height="140%">
      <feGaussianBlur in="SourceGraphic" stdDeviation="2.5" result="b"/>
      <feMerge><feMergeNode in="b"/><feMergeNode in="SourceGraphic"/></feMerge>
    </filter>
    <linearGradient id="bar" x1="0" y1="0" x2="1280" y2="0" gradientUnits="userSpaceOnUse">
      <stop offset="0" stop-color="#FF2D78" stop-opacity="0"/>
      <stop offset="0.2" stop-color="#FF2D78" stop-opacity="0.8"/>
      <stop offset="0.4" stop-color="#FF5C96" stop-opacity="0.6"/>
      <stop offset="0.5" stop-color="#39FF14" stop-opacity="0.5"/>
      <stop offset="0.6" stop-color="#7B2FFF" stop-opacity="0.6"/>
      <stop offset="0.8" stop-color="#FF2D78" stop-opacity="0.8"/>
      <stop offset="1" stop-color="#FF2D78" stop-opacity="0"/>
    </linearGradient>
  </defs>

  <!-- Background -->
  <rect width="1280" height="720" fill="url(#bg)"/>
  <rect width="1280" height="720" fill="url(#g1)"/>
  <rect width="1280" height="720" fill="url(#g2)"/>
  <rect width="1280" height="720" fill="url(#g3)"/>

  <!-- Subtle grid -->
  <line x1="320" y1="0" x2="320" y2="720" stroke="#FF2D78" stroke-opacity="0.015" stroke-width="0.3"/>
  <line x1="640" y1="0" x2="640" y2="720" stroke="#FF2D78" stroke-opacity="0.02" stroke-width="0.4"/>
  <line x1="960" y1="0" x2="960" y2="720" stroke="#FF2D78" stroke-opacity="0.015" stroke-width="0.3"/>
  <line x1="0" y1="180" x2="1280" y2="180" stroke="#FF2D78" stroke-opacity="0.015" stroke-width="0.3"/>
  <line x1="0" y1="360" x2="1280" y2="360" stroke="#FF2D78" stroke-opacity="0.015" stroke-width="0.3"/>
  <line x1="0" y1="540" x2="1280" y2="540" stroke="#FF2D78" stroke-opacity="0.015" stroke-width="0.3"/>

  <!-- Particles -->
  <rect x="120" y="65" width="2" height="2" fill="#FF2D78" opacity="0.15"/>
  <rect x="340" y="140" width="1.5" height="1.5" fill="#FF5C96" opacity="0.12"/>
  <rect x="560" y="55" width="1.5" height="1.5" fill="#FF2D78" opacity="0.14"/>
  <rect x="780" y="90" width="1" height="1" fill="#FF2D78" opacity="0.1"/>
  <rect x="1000" y="45" width="1" height="1" fill="#FF5C96" opacity="0.08"/>
  <rect x="1160" y="180" width="1.5" height="1.5" fill="#FF2D78" opacity="0.08"/>
  <rect x="180" y="350" width="1" height="1" fill="#7B2FFF" opacity="0.06"/>
  <rect x="1100" y="400" width="1" height="1" fill="#39FF14" opacity="0.04"/>
  <rect x="90" y="550" width="1" height="1" fill="#CC2460" opacity="0.05"/>
  <rect x="1190" y="520" width="1" height="1" fill="#FF2D78" opacity="0.05"/>

  <!-- Corner brackets -->
  <line x1="28" y1="28" x2="85" y2="28" stroke="#FF2D78" stroke-opacity="0.4" stroke-width="1.2"/>
  <line x1="28" y1="28" x2="28" y2="85" stroke="#FF2D78" stroke-opacity="0.4" stroke-width="1.2"/>
  <line x1="1252" y1="28" x2="1195" y2="28" stroke="#FF2D78" stroke-opacity="0.4" stroke-width="1.2"/>
  <line x1="1252" y1="28" x2="1252" y2="85" stroke="#FF2D78" stroke-opacity="0.4" stroke-width="1.2"/>
  <line x1="28" y1="692" x2="85" y2="692" stroke="#FF2D78" stroke-opacity="0.3" stroke-width="1.2"/>
  <line x1="28" y1="692" x2="28" y2="635" stroke="#FF2D78" stroke-opacity="0.3" stroke-width="1.2"/>
  <line x1="1252" y1="692" x2="1195" y2="692" stroke="#FF2D78" stroke-opacity="0.3" stroke-width="1.2"/>
  <line x1="1252" y1="692" x2="1252" y2="635" stroke="#FF2D78" stroke-opacity="0.3" stroke-width="1.2"/>

  <!-- HUD labels -->
  <text x="42" y="22" font-family="Menlo, monospace" font-size="8" fill="#FF2D78" opacity="0.45">WALLET::LIVE</text>
  <text x="1238" y="22" text-anchor="end" font-family="Menlo, monospace" font-size="8" fill="#FF2D78" opacity="0.45">MYTHIC.SH</text>

  <!-- Prism halo -->
  <circle cx="640" cy="195" r="120" fill="url(#halo)"/>

  <!-- ====== WALLET PRISM — Rose gem ====== -->
  <g filter="url(#glow)">
    <g transform="translate(555, 110)">
      <!-- Left face -->
      <polygon points="85,0 15,70 85,93" fill="#FF2D78" opacity="0.9"/>
      <!-- Right face -->
      <polygon points="85,0 155,70 85,93" fill="#FF5C96" opacity="0.75"/>
      <!-- Bottom face -->
      <polygon points="15,70 85,93 155,70 85,175" fill="#CC2460" opacity="0.85"/>
      <!-- Edges -->
      <line x1="85" y1="0" x2="85" y2="175" stroke="white" stroke-opacity="0.18" stroke-width="0.6"/>
      <line x1="85" y1="0" x2="15" y2="70" stroke="white" stroke-opacity="0.07" stroke-width="0.3"/>
      <line x1="85" y1="0" x2="155" y2="70" stroke="white" stroke-opacity="0.05" stroke-width="0.3"/>
      <line x1="85" y1="93" x2="15" y2="70" stroke="white" stroke-opacity="0.04" stroke-width="0.3"/>
      <line x1="85" y1="93" x2="155" y2="70" stroke="white" stroke-opacity="0.03" stroke-width="0.3"/>
      <!-- Apex -->
      <circle cx="85" cy="3" r="2.5" fill="white" opacity="0.28"/>
      <circle cx="85" cy="3" r="6" fill="white" opacity="0.07"/>
      <!-- Lock icon -->
      <rect x="77" y="68" width="16" height="20" rx="1.5" fill="white" opacity="0.1"/>
      <rect x="80" y="62" width="10" height="10" rx="5" fill="none" stroke="white" stroke-width="1.5" opacity="0.1"/>
      <circle cx="85" cy="77" r="2.5" fill="white" opacity="0.15"/>
      <rect x="84" y="77" width="2" height="5" fill="white" opacity="0.12"/>
    </g>
  </g>

  <!-- ====== MAIN HEADLINE ====== -->
  <g filter="url(#txt-glow)">
    <text x="640" y="365" text-anchor="middle" font-family="Helvetica Neue, Helvetica, Arial, sans-serif" font-weight="900" font-size="56" fill="white" letter-spacing="3">MYTHIC WALLET</text>
  </g>

  <text x="640" y="400" text-anchor="middle" font-family="Menlo, monospace" font-size="16" fill="#FF2D78" letter-spacing="8" opacity="0.75">YOUR KEYS · YOUR CHAIN · YOUR AI</text>

  <!-- Gem bar thin -->
  <rect y="425" width="1280" height="2.5" fill="url(#bar)"/>

  <!-- ====== THREE COLUMNS ====== -->
  <!-- Web -->
  <rect x="80" y="450" width="340" height="80" fill="#FF2D78" opacity="0.025"/>
  <rect x="80" y="450" width="340" height="80" fill="none" stroke="#FF2D78" stroke-opacity="0.12" stroke-width="0.5"/>
  <text x="100" y="478" font-family="Menlo, monospace" font-size="11" fill="#FF2D78" opacity="0.5" letter-spacing="3">WEB APP</text>
  <text x="100" y="510" font-family="Menlo, monospace" font-size="20" font-weight="bold" fill="white" opacity="0.9">wallet.mythic.sh</text>

  <!-- Chrome -->
  <rect x="470" y="450" width="340" height="80" fill="#FF2D78" opacity="0.025"/>
  <rect x="470" y="450" width="340" height="80" fill="none" stroke="#FF2D78" stroke-opacity="0.12" stroke-width="0.5"/>
  <text x="490" y="478" font-family="Menlo, monospace" font-size="11" fill="#FF2D78" opacity="0.5" letter-spacing="3">CHROME EXTENSION</text>
  <text x="490" y="510" font-family="Menlo, monospace" font-size="20" font-weight="bold" fill="white" opacity="0.9">Download Free</text>

  <!-- Telegram -->
  <rect x="860" y="450" width="340" height="80" fill="#FF2D78" opacity="0.025"/>
  <rect x="860" y="450" width="340" height="80" fill="none" stroke="#FF2D78" stroke-opacity="0.12" stroke-width="0.5"/>
  <text x="880" y="478" font-family="Menlo, monospace" font-size="11" fill="#FF2D78" opacity="0.5" letter-spacing="3">TELEGRAM BOT</text>
  <text x="880" y="510" font-family="Menlo, monospace" font-size="20" font-weight="bold" fill="white" opacity="0.9">@MythicWalletBot</text>

  <!-- ====== FEATURE CHIPS ====== -->
  <text x="180" y="575" text-anchor="middle" font-family="Menlo, monospace" font-size="11" font-weight="bold" fill="#FF2D78" letter-spacing="1.5" opacity="0.7">AI TX PREVIEWS</text>
  <rect x="305" y="562" width="1" height="20" fill="#FF2D78" opacity="0.08"/>
  <text x="420" y="575" text-anchor="middle" font-family="Menlo, monospace" font-size="11" font-weight="bold" fill="#FF2D78" letter-spacing="1.5" opacity="0.7">BUILT-IN SWAP</text>
  <rect x="535" y="562" width="1" height="20" fill="#FF2D78" opacity="0.08"/>
  <text x="640" y="575" text-anchor="middle" font-family="Menlo, monospace" font-size="11" font-weight="bold" fill="#FF2D78" letter-spacing="1.5" opacity="0.7">L1 BRIDGE</text>
  <rect x="745" y="562" width="1" height="20" fill="#FF2D78" opacity="0.08"/>
  <text x="860" y="575" text-anchor="middle" font-family="Menlo, monospace" font-size="11" font-weight="bold" fill="#FF2D78" letter-spacing="1.5" opacity="0.7">STAKING</text>
  <rect x="975" y="562" width="1" height="20" fill="#FF2D78" opacity="0.08"/>
  <text x="1100" y="575" text-anchor="middle" font-family="Menlo, monospace" font-size="11" font-weight="bold" fill="#FF2D78" letter-spacing="1.5" opacity="0.7">dAPP BROWSER</text>

  <!-- ====== BOTTOM ====== -->
  <rect y="620" width="1280" height="100" fill="#050308"/>
  <rect y="620" width="1280" height="1" fill="#FF2D78" opacity="0.06"/>

  <text x="640" y="660" text-anchor="middle" font-family="Menlo, monospace" font-size="12" fill="#FF2D78" letter-spacing="5" opacity="0.4">ONE WALLET · THREE PLATFORMS · ZERO FRICTION</text>

  <text x="60" y="695" font-family="Menlo, monospace" font-size="11" fill="#FF2D78" letter-spacing="1" opacity="0.55">mythic.sh</text>
  <text x="640" y="695" text-anchor="middle" font-family="Menlo, monospace" font-size="10" fill="white" letter-spacing="3" opacity="0.3">THE CHAIN THAT THINKS</text>
  <text x="1220" y="695" text-anchor="end" font-family="Menlo, monospace" font-size="11" fill="#FF2D78" letter-spacing="1" opacity="0.55">$MYTH</text>

  <!-- Border -->
  <rect x="0.5" y="0.5" width="1279" height="719" fill="none" stroke="#FF2D78" stroke-opacity="0.1" stroke-width="0.5"/>
</svg>
