<svg xmlns="http://www.w3.org/2000/svg" width="1600" height="900" viewBox="0 0 1600 900" style="fill-rule:evenodd;clip-rule:evenodd;">
  <defs>
    <linearGradient id="bg" x1="0" y1="0" x2="0" y2="1">
      <stop offset="0" stop-color="#020604"/>
      <stop offset="0.4" stop-color="#040A06"/>
      <stop offset="0.7" stop-color="#050810"/>
      <stop offset="1" stop-color="#020604"/>
    </linearGradient>
    <radialGradient id="g1" cx="0.5" cy="0.32" r="0.6">
      <stop offset="0" stop-color="#39FF14" stop-opacity="0.18"/>
      <stop offset="0.25" stop-color="#39FF14" stop-opacity="0.07"/>
      <stop offset="0.5" stop-color="#39FF14" stop-opacity="0.02"/>
      <stop offset="1" stop-color="#000" stop-opacity="0"/>
    </radialGradient>
    <radialGradient id="g2" cx="0.2" cy="0.7" r="0.4">
      <stop offset="0" stop-color="#7B2FFF" stop-opacity="0.06"/>
      <stop offset="1" stop-color="#000" stop-opacity="0"/>
    </radialGradient>
    <radialGradient id="g3" cx="0.85" cy="0.5" r="0.35">
      <stop offset="0" stop-color="#00E5FF" stop-opacity="0.05"/>
      <stop offset="1" stop-color="#000" stop-opacity="0"/>
    </radialGradient>
    <radialGradient id="halo" cx="0.5" cy="0.5" r="0.5">
      <stop offset="0" stop-color="#39FF14" stop-opacity="0.3"/>
      <stop offset="0.2" stop-color="#39FF14" stop-opacity="0.12"/>
      <stop offset="0.45" stop-color="#39FF14" stop-opacity="0.04"/>
      <stop offset="1" stop-color="#39FF14" stop-opacity="0"/>
    </radialGradient>
    <linearGradient id="hl" x1="0" y1="0" x2="1" y2="0">
      <stop offset="0" stop-color="#39FF14" stop-opacity="0"/>
      <stop offset="0.25" stop-color="#39FF14" stop-opacity="0.12"/>
      <stop offset="0.5" stop-color="#39FF14" stop-opacity="0.25"/>
      <stop offset="0.75" stop-color="#39FF14" stop-opacity="0.12"/>
      <stop offset="1" stop-color="#39FF14" stop-opacity="0"/>
    </linearGradient>
    <linearGradient id="vl" x1="0" y1="0" x2="0" y2="1">
      <stop offset="0" stop-color="#39FF14" stop-opacity="0"/>
      <stop offset="0.3" stop-color="#39FF14" stop-opacity="0.04"/>
      <stop offset="0.7" stop-color="#39FF14" stop-opacity="0.04"/>
      <stop offset="1" stop-color="#39FF14" stop-opacity="0"/>
    </linearGradient>
    <linearGradient id="bar" x1="0" y1="0" x2="1600" y2="0" gradientUnits="userSpaceOnUse">
      <stop offset="0" stop-color="#39FF14" stop-opacity="0"/>
      <stop offset="0.12" stop-color="#39FF14" stop-opacity="0.9"/>
      <stop offset="0.28" stop-color="#FF9500" stop-opacity="0.9"/>
      <stop offset="0.44" stop-color="#00E5FF" stop-opacity="0.9"/>
      <stop offset="0.56" stop-color="#7B2FFF" stop-opacity="0.9"/>
      <stop offset="0.72" stop-color="#FF2D78" stop-opacity="0.9"/>
      <stop offset="0.88" stop-color="#FFFFFF" stop-opacity="0.5"/>
      <stop offset="1" stop-color="#39FF14" stop-opacity="0"/>
    </linearGradient>
    <linearGradient id="live-bg" x1="0" y1="0" x2="1" y2="0">
      <stop offset="0" stop-color="#39FF14" stop-opacity="0.12"/>
      <stop offset="0.5" stop-color="#39FF14" stop-opacity="0.18"/>
      <stop offset="1" stop-color="#39FF14" stop-opacity="0.12"/>
    </linearGradient>
  </defs>

  <!-- Background -->
  <rect width="1600" height="900" fill="url(#bg)"/>
  <rect width="1600" height="900" fill="url(#g1)"/>
  <rect width="1600" height="900" fill="url(#g2)"/>
  <rect width="1600" height="900" fill="url(#g3)"/>

  <!-- Grid -->
  <line x1="400" y1="0" x2="400" y2="900" stroke="url(#vl)" stroke-width="0.5"/>
  <line x1="800" y1="0" x2="800" y2="900" stroke="url(#vl)" stroke-width="0.6"/>
  <line x1="1200" y1="0" x2="1200" y2="900" stroke="url(#vl)" stroke-width="0.5"/>
  <line x1="200" y1="0" x2="200" y2="900" stroke="#39FF14" stroke-opacity="0.015" stroke-width="0.3"/>
  <line x1="600" y1="0" x2="600" y2="900" stroke="#39FF14" stroke-opacity="0.015" stroke-width="0.3"/>
  <line x1="1000" y1="0" x2="1000" y2="900" stroke="#39FF14" stroke-opacity="0.015" stroke-width="0.3"/>
  <line x1="1400" y1="0" x2="1400" y2="900" stroke="#39FF14" stroke-opacity="0.015" stroke-width="0.3"/>
  <line x1="0" y1="180" x2="1600" y2="180" stroke="#39FF14" stroke-opacity="0.02" stroke-width="0.3"/>
  <line x1="0" y1="360" x2="1600" y2="360" stroke="#39FF14" stroke-opacity="0.02" stroke-width="0.3"/>
  <line x1="0" y1="540" x2="1600" y2="540" stroke="#39FF14" stroke-opacity="0.02" stroke-width="0.3"/>
  <line x1="0" y1="720" x2="1600" y2="720" stroke="#39FF14" stroke-opacity="0.02" stroke-width="0.3"/>

  <!-- Converging data lines -->
  <line x1="100" y1="0" x2="800" y2="280" stroke="#39FF14" stroke-opacity="0.025" stroke-width="0.3"/>
  <line x1="1500" y1="0" x2="800" y2="280" stroke="#39FF14" stroke-opacity="0.025" stroke-width="0.3"/>
  <line x1="0" y1="600" x2="800" y2="280" stroke="#39FF14" stroke-opacity="0.015" stroke-width="0.3"/>
  <line x1="1600" y1="600" x2="800" y2="280" stroke="#39FF14" stroke-opacity="0.015" stroke-width="0.3"/>
  <line x1="300" y1="900" x2="800" y2="280" stroke="#39FF14" stroke-opacity="0.01" stroke-width="0.3"/>
  <line x1="1300" y1="900" x2="800" y2="280" stroke="#39FF14" stroke-opacity="0.01" stroke-width="0.3"/>

  <!-- Particles — more intense for LIVE -->
  <rect x="160" y="100" width="2" height="2" fill="#39FF14" opacity="0.2"/>
  <rect x="400" y="200" width="1.5" height="1.5" fill="#39FF14" opacity="0.15"/>
  <rect x="620" y="80" width="2" height="2" fill="#39FF14" opacity="0.18"/>
  <rect x="950" y="120" width="1.5" height="1.5" fill="#39FF14" opacity="0.15"/>
  <rect x="1150" y="60" width="1" height="1" fill="#39FF14" opacity="0.12"/>
  <rect x="1420" y="250" width="2" height="2" fill="#39FF14" opacity="0.1"/>
  <rect x="200" y="400" width="1" height="1" fill="#39FF14" opacity="0.08"/>
  <rect x="1380" y="420" width="1" height="1" fill="#39FF14" opacity="0.08"/>
  <rect x="130" y="650" width="1" height="1" fill="#7B2FFF" opacity="0.08"/>
  <rect x="1450" y="580" width="1" height="1" fill="#00E5FF" opacity="0.06"/>
  <rect x="300" y="300" width="1" height="1" fill="#39FF14" opacity="0.06"/>
  <rect x="1300" y="350" width="1" height="1" fill="#39FF14" opacity="0.06"/>
  <rect x="700" y="150" width="1" height="1" fill="#39FF14" opacity="0.1"/>
  <rect x="880" y="90" width="1" height="1" fill="#39FF14" opacity="0.08"/>
  <rect x="500" y="50" width="1" height="1" fill="#6FFF4F" opacity="0.06"/>
  <rect x="1100" y="170" width="1" height="1" fill="#6FFF4F" opacity="0.05"/>

  <!-- Corner brackets -->
  <line x1="36" y1="36" x2="105" y2="36" stroke="#39FF14" stroke-opacity="0.45" stroke-width="1.5"/>
  <line x1="36" y1="36" x2="36" y2="105" stroke="#39FF14" stroke-opacity="0.45" stroke-width="1.5"/>
  <line x1="1564" y1="36" x2="1495" y2="36" stroke="#39FF14" stroke-opacity="0.45" stroke-width="1.5"/>
  <line x1="1564" y1="36" x2="1564" y2="105" stroke="#39FF14" stroke-opacity="0.45" stroke-width="1.5"/>
  <line x1="36" y1="864" x2="105" y2="864" stroke="#39FF14" stroke-opacity="0.35" stroke-width="1.5"/>
  <line x1="36" y1="864" x2="36" y2="795" stroke="#39FF14" stroke-opacity="0.35" stroke-width="1.5"/>
  <line x1="1564" y1="864" x2="1495" y2="864" stroke="#39FF14" stroke-opacity="0.35" stroke-width="1.5"/>
  <line x1="1564" y1="864" x2="1564" y2="795" stroke="#39FF14" stroke-opacity="0.35" stroke-width="1.5"/>

  <!-- HUD labels -->
  <text x="52" y="28" font-family="Menlo, monospace" font-size="9" fill="#39FF14" opacity="0.5">SYS::ONLINE</text>
  <text x="1548" y="28" text-anchor="end" font-family="Menlo, monospace" font-size="9" fill="#39FF14" opacity="0.5">PUMP.FUN</text>
  <text x="52" y="890" font-family="Menlo, monospace" font-size="9" fill="#39FF14" opacity="0.35">MYTHIC.SH</text>
  <text x="1548" y="890" text-anchor="end" font-family="Menlo, monospace" font-size="9" fill="#39FF14" opacity="0.35">SOLANA L2</text>

  <!-- ====== LIVE BADGE — prominent ====== -->
  <rect x="600" y="58" width="400" height="48" fill="url(#live-bg)"/>
  <rect x="600" y="58" width="400" height="48" fill="none" stroke="#39FF14" stroke-width="1.5" opacity="0.7"/>
  <!-- Pulsing dot -->
  <circle cx="636" cy="82" r="7" fill="#39FF14" opacity="0.95"/>
  <circle cx="636" cy="82" r="12" fill="#39FF14" opacity="0.15"/>
  <circle cx="636" cy="82" r="18" fill="#39FF14" opacity="0.05"/>
  <text x="800" y="90" text-anchor="middle" font-family="Menlo, monospace" font-size="22" font-weight="bold" fill="#39FF14" letter-spacing="8">LIVE NOW</text>

  <!-- Prism halo — bigger, brighter -->
  <circle cx="800" cy="270" r="160" fill="url(#halo)"/>

  <!-- ====== CONVERGENCE PRISM ====== -->
  <g transform="translate(685, 150)">
    <!-- Outer glow -->
    <polygon points="115,0 20,95 115,125" fill="#39FF14" opacity="0.04"/>
    <polygon points="115,0 210,95 115,125" fill="#6FFF4F" opacity="0.03"/>
    <polygon points="20,95 115,125 210,95 115,235" fill="#2ACC10" opacity="0.03"/>
    <!-- Main faces -->
    <polygon points="115,0 20,95 115,125" fill="#39FF14" opacity="0.92"/>
    <polygon points="115,0 210,95 115,125" fill="#6FFF4F" opacity="0.8"/>
    <polygon points="20,95 115,125 210,95 115,235" fill="#2ACC10" opacity="0.88"/>
    <!-- Edges -->
    <line x1="115" y1="0" x2="115" y2="235" stroke="white" stroke-opacity="0.2" stroke-width="0.7"/>
    <line x1="115" y1="0" x2="20" y2="95" stroke="white" stroke-opacity="0.08" stroke-width="0.3"/>
    <line x1="115" y1="0" x2="210" y2="95" stroke="white" stroke-opacity="0.06" stroke-width="0.3"/>
    <line x1="115" y1="125" x2="20" y2="95" stroke="white" stroke-opacity="0.05" stroke-width="0.3"/>
    <line x1="115" y1="125" x2="210" y2="95" stroke="white" stroke-opacity="0.04" stroke-width="0.3"/>
  </g>

  <!-- Emphasis line -->
  <line x1="0" y1="425" x2="1600" y2="425" stroke="url(#hl)" stroke-width="1"/>

  <!-- ====== MAIN HEADLINE ====== -->
  <text x="800" y="508" text-anchor="middle" font-family="Helvetica, Arial, sans-serif" font-weight="900" font-size="120" fill="#39FF14" letter-spacing="6">$MYTH</text>

  <text x="800" y="565" text-anchor="middle" font-family="Menlo, monospace" font-size="28" fill="white" letter-spacing="20" opacity="0.9">IS LIVE</text>

  <text x="800" y="610" text-anchor="middle" font-family="Menlo, monospace" font-size="15" fill="#39FF14" letter-spacing="6" opacity="0.55">THE CHAIN THAT THINKS</text>

  <!-- ====== STATS ROW ====== -->
  <rect y="640" width="1600" height="80" fill="#39FF14" opacity="0.02"/>

  <text x="200" y="682" text-anchor="middle" font-family="Menlo, monospace" font-size="34" font-weight="bold" fill="#39FF14">1M+</text>
  <text x="200" y="706" text-anchor="middle" font-family="Menlo, monospace" font-size="10" fill="#686878" letter-spacing="3">TPS</text>

  <text x="440" y="682" text-anchor="middle" font-family="Menlo, monospace" font-size="34" font-weight="bold" fill="#39FF14">AI</text>
  <text x="440" y="706" text-anchor="middle" font-family="Menlo, monospace" font-size="10" fill="#686878" letter-spacing="3">NATIVE</text>

  <text x="660" y="682" text-anchor="middle" font-family="Menlo, monospace" font-size="34" font-weight="bold" fill="#39FF14">SVM</text>
  <text x="660" y="706" text-anchor="middle" font-family="Menlo, monospace" font-size="10" fill="#686878" letter-spacing="3">SOLANA L2</text>

  <text x="900" y="682" text-anchor="middle" font-family="Menlo, monospace" font-size="34" font-weight="bold" fill="#39FF14">40%</text>
  <text x="900" y="706" text-anchor="middle" font-family="Menlo, monospace" font-size="10" fill="#686878" letter-spacing="3">FEE BURN</text>

  <text x="1160" y="682" text-anchor="middle" font-family="Menlo, monospace" font-size="26" font-weight="bold" fill="#39FF14">FIREDANCER</text>
  <text x="1160" y="706" text-anchor="middle" font-family="Menlo, monospace" font-size="10" fill="#686878" letter-spacing="3">CORE</text>

  <text x="1400" y="682" text-anchor="middle" font-family="Menlo, monospace" font-size="26" font-weight="bold" fill="#39FF14">$0</text>
  <text x="1400" y="706" text-anchor="middle" font-family="Menlo, monospace" font-size="10" fill="#686878" letter-spacing="3">PRESALE</text>

  <!-- Gem bar -->
  <rect y="730" width="1600" height="4" fill="url(#bar)"/>

  <!-- ====== CTA ROW ====== -->
  <rect x="520" y="755" width="560" height="55" fill="#39FF14" opacity="0.05"/>
  <rect x="520" y="755" width="560" height="55" fill="none" stroke="#39FF14" stroke-opacity="0.35" stroke-width="1"/>
  <text x="800" y="790" text-anchor="middle" font-family="Menlo, monospace" font-size="22" font-weight="bold" fill="#39FF14" letter-spacing="6">GO → PUMP.FUN</text>

  <!-- Bottom bar -->
  <rect y="830" width="1600" height="70" fill="#05050A"/>
  <rect y="830" width="1600" height="1" fill="#39FF14" opacity="0.06"/>
  <text x="80" y="868" font-family="Menlo, monospace" font-size="14" fill="#39FF14" letter-spacing="1" opacity="0.75">mythic.sh</text>
  <text x="800" y="868" text-anchor="middle" font-family="Menlo, monospace" font-size="12" fill="#39FF14" letter-spacing="5" opacity="0.4">NO PRESALE · NO INSIDERS · NO VC</text>
  <text x="1520" y="868" text-anchor="end" font-family="Menlo, monospace" font-size="14" fill="#39FF14" letter-spacing="1" opacity="0.75">$MYTH</text>

  <!-- Border -->
  <rect x="0.5" y="0.5" width="1599" height="899" fill="none" stroke="#39FF14" stroke-opacity="0.15" stroke-width="0.5"/>
</svg>