<svg xmlns="http://www.w3.org/2000/svg" width="1600" height="900" viewBox="0 0 1600 900" style="fill-rule:evenodd;clip-rule:evenodd;">
  <defs>
    <linearGradient id="bg" x1="0" y1="0" x2="0" y2="1">
      <stop offset="0" stop-color="#080408"/>
      <stop offset="0.35" stop-color="#0A050C"/>
      <stop offset="0.7" stop-color="#060310"/>
      <stop offset="1" stop-color="#040208"/>
    </linearGradient>
    <radialGradient id="g-rose" cx="0.5" cy="0.30" r="0.55">
      <stop offset="0" stop-color="#FF2D78" stop-opacity="0.16"/>
      <stop offset="0.2" stop-color="#FF2D78" stop-opacity="0.08"/>
      <stop offset="0.45" stop-color="#FF2D78" stop-opacity="0.03"/>
      <stop offset="1" stop-color="#000" stop-opacity="0"/>
    </radialGradient>
    <radialGradient id="g-violet" cx="0.15" cy="0.7" r="0.35">
      <stop offset="0" stop-color="#7B2FFF" stop-opacity="0.06"/>
      <stop offset="1" stop-color="#000" stop-opacity="0"/>
    </radialGradient>
    <radialGradient id="g-green" cx="0.88" cy="0.55" r="0.3">
      <stop offset="0" stop-color="#39FF14" stop-opacity="0.04"/>
      <stop offset="1" stop-color="#000" stop-opacity="0"/>
    </radialGradient>
    <radialGradient id="prism-halo" cx="0.5" cy="0.5" r="0.5">
      <stop offset="0" stop-color="#FF2D78" stop-opacity="0.35"/>
      <stop offset="0.15" stop-color="#FF2D78" stop-opacity="0.15"/>
      <stop offset="0.35" stop-color="#FF2D78" stop-opacity="0.05"/>
      <stop offset="0.6" stop-color="#FF2D78" stop-opacity="0.01"/>
      <stop offset="1" stop-color="#000" stop-opacity="0"/>
    </radialGradient>
    <linearGradient id="hl" x1="0" y1="0" x2="1" y2="0">
      <stop offset="0" stop-color="#FF2D78" stop-opacity="0"/>
      <stop offset="0.3" stop-color="#FF2D78" stop-opacity="0.15"/>
      <stop offset="0.5" stop-color="#FF2D78" stop-opacity="0.3"/>
      <stop offset="0.7" stop-color="#FF2D78" stop-opacity="0.15"/>
      <stop offset="1" stop-color="#FF2D78" stop-opacity="0"/>
    </linearGradient>
    <linearGradient id="vl" x1="0" y1="0" x2="0" y2="1">
      <stop offset="0" stop-color="#FF2D78" stop-opacity="0"/>
      <stop offset="0.3" stop-color="#FF2D78" stop-opacity="0.03"/>
      <stop offset="0.7" stop-color="#FF2D78" stop-opacity="0.03"/>
      <stop offset="1" stop-color="#FF2D78" stop-opacity="0"/>
    </linearGradient>
    <linearGradient id="bar" x1="0" y1="0" x2="1600" y2="0" gradientUnits="userSpaceOnUse">
      <stop offset="0" stop-color="#FF2D78" stop-opacity="0"/>
      <stop offset="0.15" stop-color="#FF2D78" stop-opacity="0.9"/>
      <stop offset="0.35" stop-color="#FF5C96" stop-opacity="0.7"/>
      <stop offset="0.5" stop-color="#39FF14" stop-opacity="0.6"/>
      <stop offset="0.65" stop-color="#7B2FFF" stop-opacity="0.7"/>
      <stop offset="0.85" stop-color="#FF2D78" stop-opacity="0.9"/>
      <stop offset="1" stop-color="#FF2D78" stop-opacity="0"/>
    </linearGradient>
    <linearGradient id="badge-bg" x1="0" y1="0" x2="1" y2="0">
      <stop offset="0" stop-color="#FF2D78" stop-opacity="0.10"/>
      <stop offset="0.5" stop-color="#FF2D78" stop-opacity="0.16"/>
      <stop offset="1" stop-color="#FF2D78" stop-opacity="0.10"/>
    </linearGradient>
    <filter id="txt-glow" x="-20%" y="-20%" width="140%" height="140%">
      <feGaussianBlur in="SourceGraphic" stdDeviation="3" result="b"/>
      <feMerge><feMergeNode in="b"/><feMergeNode in="SourceGraphic"/></feMerge>
    </filter>
    <filter id="prism-glow" x="-60%" y="-60%" width="220%" height="220%">
      <feGaussianBlur in="SourceGraphic" stdDeviation="5" result="b1"/>
      <feGaussianBlur in="SourceGraphic" stdDeviation="14" result="b2"/>
      <feGaussianBlur in="SourceGraphic" stdDeviation="28" result="b3"/>
      <feMerge><feMergeNode in="b3"/><feMergeNode in="b2"/><feMergeNode in="b1"/><feMergeNode in="SourceGraphic"/></feMerge>
    </filter>
  </defs>

  <!-- Background layers -->
  <rect width="1600" height="900" fill="url(#bg)"/>
  <rect width="1600" height="900" fill="url(#g-rose)"/>
  <rect width="1600" height="900" fill="url(#g-violet)"/>
  <rect width="1600" height="900" fill="url(#g-green)"/>

  <!-- Grid lines — rose tinted -->
  <line x1="400" y1="0" x2="400" y2="900" stroke="url(#vl)" stroke-width="0.5"/>
  <line x1="800" y1="0" x2="800" y2="900" stroke="url(#vl)" stroke-width="0.6"/>
  <line x1="1200" y1="0" x2="1200" y2="900" stroke="url(#vl)" stroke-width="0.5"/>
  <line x1="200" y1="0" x2="200" y2="900" stroke="#FF2D78" stroke-opacity="0.012" stroke-width="0.3"/>
  <line x1="600" y1="0" x2="600" y2="900" stroke="#FF2D78" stroke-opacity="0.012" stroke-width="0.3"/>
  <line x1="1000" y1="0" x2="1000" y2="900" stroke="#FF2D78" stroke-opacity="0.012" stroke-width="0.3"/>
  <line x1="1400" y1="0" x2="1400" y2="900" stroke="#FF2D78" stroke-opacity="0.012" stroke-width="0.3"/>
  <line x1="0" y1="180" x2="1600" y2="180" stroke="#FF2D78" stroke-opacity="0.015" stroke-width="0.3"/>
  <line x1="0" y1="360" x2="1600" y2="360" stroke="#FF2D78" stroke-opacity="0.015" stroke-width="0.3"/>
  <line x1="0" y1="540" x2="1600" y2="540" stroke="#FF2D78" stroke-opacity="0.015" stroke-width="0.3"/>
  <line x1="0" y1="720" x2="1600" y2="720" stroke="#FF2D78" stroke-opacity="0.015" stroke-width="0.3"/>

  <!-- Converging data lines to prism -->
  <line x1="100" y1="0" x2="800" y2="240" stroke="#FF2D78" stroke-opacity="0.02" stroke-width="0.3"/>
  <line x1="1500" y1="0" x2="800" y2="240" stroke="#FF2D78" stroke-opacity="0.02" stroke-width="0.3"/>
  <line x1="0" y1="500" x2="800" y2="240" stroke="#FF2D78" stroke-opacity="0.012" stroke-width="0.3"/>
  <line x1="1600" y1="500" x2="800" y2="240" stroke="#FF2D78" stroke-opacity="0.012" stroke-width="0.3"/>

  <!-- Particles -->
  <rect x="150" y="85" width="2" height="2" fill="#FF2D78" opacity="0.18"/>
  <rect x="380" y="170" width="1.5" height="1.5" fill="#FF2D78" opacity="0.14"/>
  <rect x="640" y="70" width="2" height="2" fill="#FF2D78" opacity="0.16"/>
  <rect x="980" y="100" width="1.5" height="1.5" fill="#FF5C96" opacity="0.12"/>
  <rect x="1180" y="55" width="1" height="1" fill="#FF2D78" opacity="0.1"/>
  <rect x="1430" y="230" width="2" height="2" fill="#FF2D78" opacity="0.09"/>
  <rect x="210" y="380" width="1" height="1" fill="#FF2D78" opacity="0.07"/>
  <rect x="1370" y="400" width="1" height="1" fill="#FF2D78" opacity="0.07"/>
  <rect x="120" y="620" width="1" height="1" fill="#7B2FFF" opacity="0.06"/>
  <rect x="1460" y="560" width="1" height="1" fill="#39FF14" opacity="0.05"/>
  <rect x="310" y="280" width="1" height="1" fill="#FF5C96" opacity="0.05"/>
  <rect x="1290" y="320" width="1" height="1" fill="#CC2460" opacity="0.05"/>
  <rect x="720" y="140" width="1" height="1" fill="#FF2D78" opacity="0.08"/>
  <rect x="860" y="80" width="1" height="1" fill="#FF5C96" opacity="0.06"/>
  <rect x="500" y="45" width="1" height="1" fill="#FF2D78" opacity="0.06"/>
  <rect x="1100" y="160" width="1" height="1" fill="#FF5C96" opacity="0.04"/>

  <!-- Corner brackets -->
  <line x1="36" y1="36" x2="105" y2="36" stroke="#FF2D78" stroke-opacity="0.45" stroke-width="1.5"/>
  <line x1="36" y1="36" x2="36" y2="105" stroke="#FF2D78" stroke-opacity="0.45" stroke-width="1.5"/>
  <line x1="1564" y1="36" x2="1495" y2="36" stroke="#FF2D78" stroke-opacity="0.45" stroke-width="1.5"/>
  <line x1="1564" y1="36" x2="1564" y2="105" stroke="#FF2D78" stroke-opacity="0.45" stroke-width="1.5"/>
  <line x1="36" y1="864" x2="105" y2="864" stroke="#FF2D78" stroke-opacity="0.35" stroke-width="1.5"/>
  <line x1="36" y1="864" x2="36" y2="795" stroke="#FF2D78" stroke-opacity="0.35" stroke-width="1.5"/>
  <line x1="1564" y1="864" x2="1495" y2="864" stroke="#FF2D78" stroke-opacity="0.35" stroke-width="1.5"/>
  <line x1="1564" y1="864" x2="1564" y2="795" stroke="#FF2D78" stroke-opacity="0.35" stroke-width="1.5"/>

  <!-- HUD labels -->
  <text x="52" y="28" font-family="Menlo, monospace" font-size="9" fill="#FF2D78" opacity="0.5">WALLET::ACTIVE</text>
  <text x="1548" y="28" text-anchor="end" font-family="Menlo, monospace" font-size="9" fill="#FF2D78" opacity="0.5">MYTHIC.SH</text>
  <text x="52" y="890" font-family="Menlo, monospace" font-size="9" fill="#FF2D78" opacity="0.35">WALLET.MYTHIC.SH</text>
  <text x="1548" y="890" text-anchor="end" font-family="Menlo, monospace" font-size="9" fill="#FF2D78" opacity="0.35">SOLANA SVM L2</text>

  <!-- ====== BADGE — LIVE ====== -->
  <rect x="610" y="55" width="380" height="44" fill="url(#badge-bg)"/>
  <rect x="610" y="55" width="380" height="44" fill="none" stroke="#FF2D78" stroke-width="1.2" opacity="0.65"/>
  <circle cx="644" cy="77" r="6" fill="#FF2D78" opacity="0.9"/>
  <circle cx="644" cy="77" r="11" fill="#FF2D78" opacity="0.12"/>
  <text x="800" y="84" text-anchor="middle" font-family="Menlo, monospace" font-size="19" font-weight="bold" fill="#FF2D78" letter-spacing="8">NOW LIVE</text>

  <!-- Prism halo -->
  <circle cx="800" cy="240" r="140" fill="url(#prism-halo)"/>

  <!-- ====== WALLET PRISM — Rose gem ====== -->
  <g filter="url(#prism-glow)">
    <g transform="translate(695, 135)">
      <!-- Left face -->
      <polygon points="105,0 18,87 105,115" fill="#FF2D78" opacity="0.9"/>
      <!-- Right face -->
      <polygon points="105,0 192,87 105,115" fill="#FF5C96" opacity="0.75"/>
      <!-- Bottom face -->
      <polygon points="18,87 105,115 192,87 105,215" fill="#CC2460" opacity="0.85"/>
      <!-- Edge highlights -->
      <line x1="105" y1="0" x2="105" y2="215" stroke="white" stroke-opacity="0.2" stroke-width="0.7"/>
      <line x1="105" y1="0" x2="18" y2="87" stroke="white" stroke-opacity="0.08" stroke-width="0.3"/>
      <line x1="105" y1="0" x2="192" y2="87" stroke="white" stroke-opacity="0.06" stroke-width="0.3"/>
      <line x1="105" y1="115" x2="18" y2="87" stroke="white" stroke-opacity="0.05" stroke-width="0.3"/>
      <line x1="105" y1="115" x2="192" y2="87" stroke="white" stroke-opacity="0.04" stroke-width="0.3"/>
      <line x1="18" y1="87" x2="105" y2="215" stroke="white" stroke-opacity="0.025" stroke-width="0.3"/>
      <line x1="192" y1="87" x2="105" y2="215" stroke="white" stroke-opacity="0.025" stroke-width="0.3"/>
      <!-- Apex highlight -->
      <circle cx="105" cy="3" r="3" fill="white" opacity="0.3"/>
      <circle cx="105" cy="3" r="8" fill="white" opacity="0.08"/>
      <!-- Lock icon inside prism — shield/keyhole shape -->
      <rect x="95" y="85" width="20" height="24" rx="2" fill="white" opacity="0.12"/>
      <rect x="99" y="78" width="12" height="12" rx="6" fill="none" stroke="white" stroke-width="1.8" opacity="0.12"/>
      <circle cx="105" cy="95" r="3" fill="white" opacity="0.18"/>
      <rect x="104" y="95" width="2" height="6" fill="white" opacity="0.15"/>
    </g>
  </g>

  <!-- Emphasis line -->
  <line x1="0" y1="395" x2="1600" y2="395" stroke="url(#hl)" stroke-width="1"/>

  <!-- ====== MAIN HEADLINE ====== -->
  <g filter="url(#txt-glow)">
    <text x="800" y="470" text-anchor="middle" font-family="Helvetica Neue, Helvetica, Arial, sans-serif" font-weight="900" font-size="68" fill="white" letter-spacing="4">MYTHIC WALLET</text>
  </g>

  <text x="800" y="515" text-anchor="middle" font-family="Menlo, monospace" font-size="20" fill="#FF2D78" letter-spacing="12" opacity="0.8">YOUR KEYS · YOUR CHAIN · YOUR AI</text>

  <!-- ====== THREE ACCESS METHODS ====== -->
  <!-- Web -->
  <rect x="130" y="560" width="400" height="90" fill="#FF2D78" opacity="0.03"/>
  <rect x="130" y="560" width="400" height="90" fill="none" stroke="#FF2D78" stroke-opacity="0.15" stroke-width="0.5"/>
  <text x="170" y="595" font-family="Menlo, monospace" font-size="13" fill="#FF2D78" opacity="0.5" letter-spacing="3">WEB APP</text>
  <text x="170" y="628" font-family="Menlo, monospace" font-size="22" font-weight="bold" fill="white" opacity="0.9">wallet.mythic.sh</text>

  <!-- Chrome -->
  <rect x="600" y="560" width="400" height="90" fill="#FF2D78" opacity="0.03"/>
  <rect x="600" y="560" width="400" height="90" fill="none" stroke="#FF2D78" stroke-opacity="0.15" stroke-width="0.5"/>
  <text x="640" y="595" font-family="Menlo, monospace" font-size="13" fill="#FF2D78" opacity="0.5" letter-spacing="3">CHROME EXTENSION</text>
  <text x="640" y="628" font-family="Menlo, monospace" font-size="22" font-weight="bold" fill="white" opacity="0.9">Download Free</text>

  <!-- Telegram -->
  <rect x="1070" y="560" width="400" height="90" fill="#FF2D78" opacity="0.03"/>
  <rect x="1070" y="560" width="400" height="90" fill="none" stroke="#FF2D78" stroke-opacity="0.15" stroke-width="0.5"/>
  <text x="1110" y="595" font-family="Menlo, monospace" font-size="13" fill="#FF2D78" opacity="0.5" letter-spacing="3">TELEGRAM BOT</text>
  <text x="1110" y="628" font-family="Menlo, monospace" font-size="22" font-weight="bold" fill="white" opacity="0.9">@MythicWalletBot</text>

  <!-- Gem bar -->
  <rect y="680" width="1600" height="3" fill="url(#bar)"/>

  <!-- ====== FEATURE ROW ====== -->
  <rect y="700" width="1600" height="70" fill="#FF2D78" opacity="0.015"/>

  <text x="200" y="740" text-anchor="middle" font-family="Menlo, monospace" font-size="13" font-weight="bold" fill="#FF2D78" letter-spacing="2">AI TX PREVIEWS</text>

  <rect x="380" y="715" width="1" height="40" fill="#FF2D78" opacity="0.1"/>

  <text x="530" y="740" text-anchor="middle" font-family="Menlo, monospace" font-size="13" font-weight="bold" fill="#FF2D78" letter-spacing="2">BUILT-IN SWAP</text>

  <rect x="680" y="715" width="1" height="40" fill="#FF2D78" opacity="0.1"/>

  <text x="800" y="740" text-anchor="middle" font-family="Menlo, monospace" font-size="13" font-weight="bold" fill="#FF2D78" letter-spacing="2">L1 BRIDGE</text>

  <rect x="920" y="715" width="1" height="40" fill="#FF2D78" opacity="0.1"/>

  <text x="1070" y="740" text-anchor="middle" font-family="Menlo, monospace" font-size="13" font-weight="bold" fill="#FF2D78" letter-spacing="2">STAKING</text>

  <rect x="1220" y="715" width="1" height="40" fill="#FF2D78" opacity="0.1"/>

  <text x="1400" y="740" text-anchor="middle" font-family="Menlo, monospace" font-size="13" font-weight="bold" fill="#FF2D78" letter-spacing="2">dAPP BROWSER</text>

  <!-- ====== BOTTOM BAR ====== -->
  <rect y="790" width="1600" height="110" fill="#050308"/>
  <rect y="790" width="1600" height="1" fill="#FF2D78" opacity="0.08"/>

  <text x="800" y="835" text-anchor="middle" font-family="Menlo, monospace" font-size="14" fill="#FF2D78" letter-spacing="6" opacity="0.45">ONE WALLET · THREE PLATFORMS · ZERO FRICTION</text>

  <text x="80" y="870" font-family="Menlo, monospace" font-size="13" fill="#FF2D78" letter-spacing="1" opacity="0.65">mythic.sh</text>
  <text x="800" y="870" text-anchor="middle" font-family="Menlo, monospace" font-size="12" fill="white" letter-spacing="3" opacity="0.35">THE CHAIN THAT THINKS</text>
  <text x="1520" y="870" text-anchor="end" font-family="Menlo, monospace" font-size="13" fill="#FF2D78" letter-spacing="1" opacity="0.65">$MYTH</text>

  <!-- Border -->
  <rect x="0.5" y="0.5" width="1599" height="899" fill="none" stroke="#FF2D78" stroke-opacity="0.12" stroke-width="0.5"/>
</svg>
