<svg xmlns="http://www.w3.org/2000/svg" width="400" height="400" viewBox="0 0 24 24" style="image-rendering:pixelated;">
  <defs>
    <radialGradient id="glow" cx="0.5" cy="0.4" r="0.55">
      <stop offset="0" stop-color="#7B2FFF" stop-opacity="0.1"/>
      <stop offset="1" stop-color="#000" stop-opacity="0"/>
    </radialGradient>
  </defs>

  <!-- Background -->
  <rect width="24" height="24" fill="#06060E"/>
  <rect width="24" height="24" fill="url(#glow)"/>

  <!-- Grid -->
  <line x1="0" y1="6" x2="24" y2="6" stroke="#7B2FFF" stroke-opacity="0.04" stroke-width="0.1"/>
  <line x1="0" y1="12" x2="24" y2="12" stroke="#7B2FFF" stroke-opacity="0.04" stroke-width="0.1"/>
  <line x1="0" y1="18" x2="24" y2="18" stroke="#7B2FFF" stroke-opacity="0.04" stroke-width="0.1"/>
  <line x1="6" y1="0" x2="6" y2="24" stroke="#7B2FFF" stroke-opacity="0.04" stroke-width="0.1"/>
  <line x1="12" y1="0" x2="12" y2="24" stroke="#7B2FFF" stroke-opacity="0.04" stroke-width="0.1"/>
  <line x1="18" y1="0" x2="18" y2="24" stroke="#7B2FFF" stroke-opacity="0.04" stroke-width="0.1"/>

  <!-- === THE ARCHITECT === -->
  <!-- Spiky hair - violet -->
  <rect x="9" y="2" width="1" height="1" fill="#7B2FFF"/>
  <rect x="11" y="1" width="1" height="1" fill="#9B5FFF"/>
  <rect x="13" y="2" width="1" height="1" fill="#7B2FFF"/>
  <rect x="14" y="1" width="1" height="1" fill="#5A1FCC"/>

  <rect x="8" y="3" width="1" height="1" fill="#5A1FCC"/>
  <rect x="9" y="3" width="1" height="1" fill="#7B2FFF"/>
  <rect x="10" y="3" width="1" height="1" fill="#9B5FFF"/>
  <rect x="11" y="3" width="1" height="1" fill="#9B5FFF"/>
  <rect x="12" y="3" width="1" height="1" fill="#7B2FFF"/>
  <rect x="13" y="3" width="1" height="1" fill="#9B5FFF"/>
  <rect x="14" y="3" width="1" height="1" fill="#7B2FFF"/>
  <rect x="15" y="3" width="1" height="1" fill="#5A1FCC"/>

  <!-- Forehead -->
  <rect x="8" y="4" width="1" height="1" fill="#5A1FCC"/>
  <rect x="9" y="4" width="1" height="1" fill="#3A3A48"/>
  <rect x="10" y="4" width="1" height="1" fill="#4A4A58"/>
  <rect x="11" y="4" width="1" height="1" fill="#4A4A58"/>
  <rect x="12" y="4" width="1" height="1" fill="#4A4A58"/>
  <rect x="13" y="4" width="1" height="1" fill="#4A4A58"/>
  <rect x="14" y="4" width="1" height="1" fill="#3A3A48"/>
  <rect x="15" y="4" width="1" height="1" fill="#5A1FCC"/>

  <!-- Face with cybernetic visor -->
  <rect x="7" y="5" width="1" height="1" fill="#2A2A35"/>
  <rect x="8" y="5" width="1" height="1" fill="#3A3A48"/>
  <rect x="9" y="5" width="1" height="1" fill="#7B2FFF"/> <!-- Visor left -->
  <rect x="10" y="5" width="1" height="1" fill="#9B5FFF"/>
  <rect x="11" y="5" width="1" height="1" fill="#7B2FFF"/>
  <rect x="12" y="5" width="1" height="1" fill="#7B2FFF"/>
  <rect x="13" y="5" width="1" height="1" fill="#9B5FFF"/>
  <rect x="14" y="5" width="1" height="1" fill="#7B2FFF"/> <!-- Visor right -->
  <rect x="15" y="5" width="1" height="1" fill="#3A3A48"/>
  <rect x="16" y="5" width="1" height="1" fill="#2A2A35"/>

  <!-- Visor glow -->
  <rect x="9" y="5" width="6" height="1" fill="#7B2FFF" opacity="0.3"/>

  <!-- Mid face -->
  <rect x="7" y="6" width="1" height="1" fill="#2A2A35"/>
  <rect x="8" y="6" width="1" height="1" fill="#4A4A58"/>
  <rect x="9" y="6" width="1" height="1" fill="#4A4A58"/>
  <rect x="10" y="6" width="1" height="1" fill="#4A4A58"/>
  <rect x="11" y="6" width="1" height="1" fill="#4A4A58"/>
  <rect x="12" y="6" width="1" height="1" fill="#4A4A58"/>
  <rect x="13" y="6" width="1" height="1" fill="#4A4A58"/>
  <rect x="14" y="6" width="1" height="1" fill="#4A4A58"/>
  <rect x="15" y="6" width="1" height="1" fill="#4A4A58"/>
  <rect x="16" y="6" width="1" height="1" fill="#2A2A35"/>

  <!-- Nose and mouth -->
  <rect x="8" y="7" width="1" height="1" fill="#3A3A48"/>
  <rect x="9" y="7" width="1" height="1" fill="#4A4A58"/>
  <rect x="10" y="7" width="1" height="1" fill="#4A4A58"/>
  <rect x="11" y="7" width="1" height="1" fill="#555568"/>
  <rect x="12" y="7" width="1" height="1" fill="#555568"/>
  <rect x="13" y="7" width="1" height="1" fill="#4A4A58"/>
  <rect x="14" y="7" width="1" height="1" fill="#4A4A58"/>
  <rect x="15" y="7" width="1" height="1" fill="#3A3A48"/>

  <!-- Chin -->
  <rect x="9" y="8" width="1" height="1" fill="#3A3A48"/>
  <rect x="10" y="8" width="1" height="1" fill="#4A4A58"/>
  <rect x="11" y="8" width="1" height="1" fill="#4A4A58"/>
  <rect x="12" y="8" width="1" height="1" fill="#4A4A58"/>
  <rect x="13" y="8" width="1" height="1" fill="#4A4A58"/>
  <rect x="14" y="8" width="1" height="1" fill="#3A3A48"/>

  <!-- Neck -->
  <rect x="10" y="9" width="1" height="1" fill="#3A3A48"/>
  <rect x="11" y="9" width="1" height="1" fill="#4A4A58"/>
  <rect x="12" y="9" width="1" height="1" fill="#4A4A58"/>
  <rect x="13" y="9" width="1" height="1" fill="#3A3A48"/>

  <!-- Lab coat / formal jacket - white/gray with violet trim -->
  <rect x="6" y="10" width="1" height="1" fill="#5A1FCC"/>
  <rect x="7" y="10" width="1" height="1" fill="#E0E0E8"/>
  <rect x="8" y="10" width="1" height="1" fill="#E0E0E8"/>
  <rect x="9" y="10" width="1" height="1" fill="#A0A0B0"/>
  <rect x="10" y="10" width="1" height="1" fill="#A0A0B0"/>
  <rect x="11" y="10" width="1" height="1" fill="#7B2FFF"/> <!-- Lapel -->
  <rect x="12" y="10" width="1" height="1" fill="#7B2FFF"/> <!-- Lapel -->
  <rect x="13" y="10" width="1" height="1" fill="#A0A0B0"/>
  <rect x="14" y="10" width="1" height="1" fill="#A0A0B0"/>
  <rect x="15" y="10" width="1" height="1" fill="#E0E0E8"/>
  <rect x="16" y="10" width="1" height="1" fill="#E0E0E8"/>
  <rect x="17" y="10" width="1" height="1" fill="#5A1FCC"/>

  <rect x="5" y="11" width="1" height="1" fill="#5A1FCC"/>
  <rect x="6" y="11" width="1" height="1" fill="#E0E0E8"/>
  <rect x="7" y="11" width="1" height="1" fill="#A0A0B0"/>
  <rect x="8" y="11" width="1" height="1" fill="#A0A0B0"/>
  <rect x="9" y="11" width="1" height="1" fill="#A0A0B0"/>
  <rect x="10" y="11" width="1" height="1" fill="#A0A0B0"/>
  <rect x="11" y="11" width="1" height="1" fill="#A0A0B0"/>
  <rect x="12" y="11" width="1" height="1" fill="#A0A0B0"/>
  <rect x="13" y="11" width="1" height="1" fill="#A0A0B0"/>
  <rect x="14" y="11" width="1" height="1" fill="#A0A0B0"/>
  <rect x="15" y="11" width="1" height="1" fill="#A0A0B0"/>
  <rect x="16" y="11" width="1" height="1" fill="#A0A0B0"/>
  <rect x="17" y="11" width="1" height="1" fill="#E0E0E8"/>
  <rect x="18" y="11" width="1" height="1" fill="#5A1FCC"/>

  <!-- Arms holding holographic display -->
  <rect x="4" y="12" width="1" height="1" fill="#A0A0B0"/>
  <rect x="5" y="12" width="1" height="1" fill="#A0A0B0"/>
  <rect x="6" y="12" width="1" height="1" fill="#A0A0B0"/>
  <rect x="7" y="12" width="1" height="1" fill="#A0A0B0"/>
  <rect x="8" y="12" width="1" height="1" fill="#A0A0B0"/>
  <rect x="9" y="12" width="1" height="1" fill="#686878"/>
  <rect x="10" y="12" width="1" height="1" fill="#686878"/>
  <rect x="11" y="12" width="1" height="1" fill="#686878"/>
  <rect x="12" y="12" width="1" height="1" fill="#686878"/>
  <rect x="13" y="12" width="1" height="1" fill="#686878"/>
  <rect x="14" y="12" width="1" height="1" fill="#686878"/>
  <rect x="15" y="12" width="1" height="1" fill="#A0A0B0"/>
  <rect x="16" y="12" width="1" height="1" fill="#A0A0B0"/>
  <rect x="17" y="12" width="1" height="1" fill="#A0A0B0"/>
  <rect x="18" y="12" width="1" height="1" fill="#A0A0B0"/>
  <rect x="19" y="12" width="1" height="1" fill="#A0A0B0"/>

  <!-- Purple prism on chest -->
  <rect x="11" y="11" width="1" height="1" fill="#7B2FFF" opacity="0.9"/>
  <rect x="12" y="11" width="1" height="1" fill="#9B5FFF" opacity="0.7"/>
  <rect x="11" y="12" width="1" height="1" fill="#5A1FCC" opacity="0.85"/>
  <rect x="12" y="12" width="1" height="1" fill="#5A1FCC" opacity="0.85"/>

  <!-- Holographic data pixels floating around hands -->
  <rect x="3" y="11" width="1" height="1" fill="#7B2FFF" opacity="0.6"/>
  <rect x="4" y="10" width="1" height="1" fill="#9B5FFF" opacity="0.4"/>
  <rect x="20" y="11" width="1" height="1" fill="#7B2FFF" opacity="0.6"/>
  <rect x="19" y="10" width="1" height="1" fill="#9B5FFF" opacity="0.4"/>
  <rect x="3" y="13" width="1" height="1" fill="#39FF14" opacity="0.3"/>
  <rect x="20" y="13" width="1" height="1" fill="#00E5FF" opacity="0.3"/>

  <!-- Lower body -->
  <rect x="8" y="13" width="1" height="1" fill="#A0A0B0"/>
  <rect x="9" y="13" width="1" height="1" fill="#A0A0B0"/>
  <rect x="10" y="13" width="1" height="1" fill="#686878"/>
  <rect x="11" y="13" width="1" height="1" fill="#686878"/>
  <rect x="12" y="13" width="1" height="1" fill="#686878"/>
  <rect x="13" y="13" width="1" height="1" fill="#686878"/>
  <rect x="14" y="13" width="1" height="1" fill="#A0A0B0"/>
  <rect x="15" y="13" width="1" height="1" fill="#A0A0B0"/>

  <!-- Pants -->
  <rect x="9" y="14" width="1" height="1" fill="#16161F"/>
  <rect x="10" y="14" width="1" height="1" fill="#1E1E2A"/>
  <rect x="11" y="14" width="1" height="1" fill="#1E1E2A"/>
  <rect x="12" y="14" width="1" height="1" fill="#1E1E2A"/>
  <rect x="13" y="14" width="1" height="1" fill="#1E1E2A"/>
  <rect x="14" y="14" width="1" height="1" fill="#16161F"/>

  <rect x="9" y="15" width="1" height="1" fill="#16161F"/>
  <rect x="10" y="15" width="1" height="1" fill="#1E1E2A"/>
  <rect x="11" y="15" width="1" height="1" fill="#16161F"/>
  <rect x="12" y="15" width="1" height="1" fill="#16161F"/>
  <rect x="13" y="15" width="1" height="1" fill="#1E1E2A"/>
  <rect x="14" y="15" width="1" height="1" fill="#16161F"/>

  <rect x="9" y="16" width="1" height="1" fill="#0F0F15"/>
  <rect x="10" y="16" width="1" height="1" fill="#16161F"/>
  <rect x="11" y="16" width="1" height="1" fill="#0F0F15"/>
  <rect x="12" y="16" width="1" height="1" fill="#0F0F15"/>
  <rect x="13" y="16" width="1" height="1" fill="#16161F"/>
  <rect x="14" y="16" width="1" height="1" fill="#0F0F15"/>

  <!-- Boots with violet sole -->
  <rect x="8" y="17" width="1" height="1" fill="#5A1FCC"/>
  <rect x="9" y="17" width="1" height="1" fill="#0F0F15"/>
  <rect x="10" y="17" width="1" height="1" fill="#0F0F15"/>
  <rect x="13" y="17" width="1" height="1" fill="#0F0F15"/>
  <rect x="14" y="17" width="1" height="1" fill="#0F0F15"/>
  <rect x="15" y="17" width="1" height="1" fill="#5A1FCC"/>

  <!-- NFT label -->
  <rect x="1" y="20" width="22" height="3" fill="#08080C"/>
  <text x="12" y="22" text-anchor="middle" font-family="monospace" font-size="1.8" fill="#7B2FFF" letter-spacing="0.15">#002 ARCHITECT</text>

  <!-- Corner accents -->
  <line x1="0.5" y1="0.5" x2="2.5" y2="0.5" stroke="#7B2FFF" stroke-opacity="0.4" stroke-width="0.15"/>
  <line x1="0.5" y1="0.5" x2="0.5" y2="2.5" stroke="#7B2FFF" stroke-opacity="0.4" stroke-width="0.15"/>
  <line x1="23.5" y1="0.5" x2="21.5" y2="0.5" stroke="#7B2FFF" stroke-opacity="0.4" stroke-width="0.15"/>
  <line x1="23.5" y1="0.5" x2="23.5" y2="2.5" stroke="#7B2FFF" stroke-opacity="0.4" stroke-width="0.15"/>

  <!-- Border -->
  <rect x="0.1" y="0.1" width="23.8" height="23.8" fill="none" stroke="#7B2FFF" stroke-opacity="0.2" stroke-width="0.1"/>
</svg>
